<?xml version="1.0" encoding="UTF-8"?>
<svg id="OBJECTS" xmlns="http://www.w3.org/2000/svg" version="1.1" viewBox="0 0 1030.43 288.46">
  <!-- Generator: Adobe Illustrator 29.1.0, SVG Export Plug-In . SVG Version: 2.1.0 Build 142)  -->
  <defs>
    <style>
      .st0 {
        fill: #231f20;
      }
    </style>
  </defs>
  <g>
    <path d="M931.85,219.78c-8.12,1.78-14.65,7.35-20.18,13.28-.74.79-1.46,1.59-2.19,2.39-.81.89-1.89,1.81-2.32,2.94-.36.93.81,1.56,1.55,1.19.89-.44,1.57-1.46,2.21-2.2s1.25-1.42,1.88-2.12c1.23-1.38,2.48-2.74,3.78-4.05,2.67-2.67,5.6-5.09,8.82-7.07,2.19-1.34,4.46-2.54,6.67-3.83.29-.17.09-.6-.22-.53h0Z"/>
    <path d="M799.88,278.6c27.07-1.08,51.75-15.08,69.46-35.09,17.97-19.99,30.08-44.58,39.72-69.51,10.03-25.14,18.7-50.75,29-75.8,2.64-6.25,5.44-12.45,8.69-18.44,6.37-11.94,15.34-23.49,28.23-28.75,6.33-2.67,13.13-3.93,19.9-4.43.25-.02.47.17.49.42.02.25-.17.47-.42.49-13.34,1.07-26.55,6.21-35.36,16.55-8.88,10.1-14.35,22.67-19.44,35.02-5.05,12.5-9.53,25.26-14.12,37.98-9.39,25.4-17.68,51.43-30.68,75.3-13.02,23.78-30.96,46.42-55.71,58.69-12.28,6.08-26.05,9.28-39.74,9.04-.41,0-.73-.34-.73-.75,0-.39.32-.71.7-.73h0Z"/>
    <path d="M880.91,231.53c6.13-.08,11.68,2.76,17.21,4.62,10.83,3.75,22.64,3.02,33.91,1.99,5.73-.57,11.46-1.62,17.34-1.76.31,0,.56.24.57.54,0,.31-.23.56-.54.57-5.72.33-11.39,1.57-17.16,2.34-11.58,1.46-23.62,2.58-35-.89-5.44-1.58-10.64-4.12-16.28-3.86-2.38.03-2.47-3.5-.05-3.56h0Z"/>
    <path d="M897.89,200.5c17.73-16.46,38.98-30.57,55.65-48.12.13-.14.34-.14.48-.02.13.12.14.33.02.47-11.71,13.35-27.01,25.87-40.32,37.72-4.57,4.07-9.12,8.17-13.35,12.49-1.68,1.66-4.2-.85-2.49-2.54h0Z"/>
    <path d="M912.61,188.6c7.67-2.34,15.69-3.48,23.69-3.08.2.01.36.19.35.39-.01.19-.18.34-.37.35-5.87.08-11.69,1.15-17.32,2.76-1.87.55-3.75,1.15-5.5,1.87-1.54.6-2.41-1.72-.85-2.28h0Z"/>
    <path d="M937.04,167.06c1.46-4.7,2-9.79,2.04-14.74-.01-.42.65-.46.68-.04.44,5.13.41,10.25-.64,15.34-.13.59-.7.96-1.29.83-.63-.13-1.01-.79-.8-1.4h0Z"/>
    <path d="M878.5,231.73c1.59-16.01,1.61-35.44-5.56-50.14-.33-.61.6-1.17.97-.54,4.35,7.62,6.2,16.34,7.37,24.94,1.07,8.67,1.34,17.36.75,26.1-.07.98-.92,1.72-1.9,1.65-1.02-.07-1.77-1-1.64-2.01h0Z"/>
    <path d="M919.95,146.25c1.29-21.09-1.79-37.38-13.38-55.3-3.44-5.49-7.23-10.77-11.13-15.98-.42-.54.43-1.27.89-.68,18.85,24.1,27.57,40.72,26.07,72.04-.07,1.59-2.48,1.55-2.44-.09h0Z"/>
    <path d="M949.32,236.61c4.64-8.17,16.21-12.3,25.25-11.76,8.97.98,17.25,5.66,25.81,7.98,1.18.22,1.35,1.35.6,2.17-3.56,3.44-8,5.34-12.36,7.47-6.42,2.84-13.74,6.13-21.02,4.85-6.84-1.09-14.87-4.34-18.29-10.72h0ZM949.61,236.61c5.32,6.09,17.08,9.14,24.87,7.63,4.4-.97,8.83-2.62,13.06-4.28,4.09-1.8,8.66-3.39,12.25-6,.06-.06.13-.15.13-.14,0,0,0,0,0,.03-.02.13.05.34.14.4.05.03.05.04.06.04.02,0,.03,0,0,0,0,0-.03-.02-.03-.02,0,0-.11-.04-.11-.04-8.06-3.47-16.68-7.07-25.52-6.97-8.88.15-18.47,2.87-24.87,9.35h0Z"/>
    <path d="M949.72,236.29c6.22.58,12.55.59,18.8.44,6.21-.22,12.61-.41,18.6-2.08.51-.16.78.64.25.81-9.2,2.54-18.84,2.24-28.29,2.14-3.15-.1-6.3-.24-9.46-.64-.43-.06-.37-.73.09-.67h0Z"/>
    <path d="M930.02,220.7c1.37-7.17,8.94-12.89,15.78-14.49,3.75-.75,7.41-.31,11-.13,2.67.13,7.07.49,9.69.33.24-.01.45-.02.69.1.36.14.62.66.55,1.03-.55,2.05-2.27,3.59-3.55,5.13-3.88,3.98-7.82,7.59-12.77,10.4-6.24,3.05-16.38,2.81-21.38-2.37h0ZM930.3,220.63c5.73,3.06,14.04,2.54,19.65-.28,4.48-2.58,8.67-5.97,12.61-9.35,1.22-1.08,2.8-2.39,3.64-3.63-.03.2.25.52.43.49.02-.01-.09-.01-.1-.01-6.62-.88-13.77-1.46-20.12.7-6.38,2.12-12.68,6.12-16.11,12.07h0Z"/>
    <path d="M930.27,220.3c4.66-.98,9.28-2.38,13.81-3.88,4.47-1.54,9.1-3.11,13.1-5.64.44-.3.93.4.47.7-6.16,3.93-13.27,5.85-20.21,7.87-2.33.63-4.66,1.22-7.06,1.62-.43.08-.55-.6-.11-.67h0Z"/>
    <path d="M953.76,152.39c1.16-7.75,8.94-14.23,16.18-16.33,3.97-1.02,7.92-.79,11.78-.79,2.87,0,7.62.14,10.43-.16,1.07-.18,1.58.76,1.21,1.69-1.77,3.71-4.63,6.44-7.42,9.34-4.15,4.02-8.97,8.67-14.99,9.67-5.73,1.03-12.73.73-17.19-3.41h0ZM954.03,152.3c5.94,3.05,15.61,2.02,21.16-1.27,4.68-3.03,9-6.9,13.04-10.77,1.23-1.23,2.79-2.64,3.65-4.05.03-.06.06-.14.06-.1,0,0,0,.02,0,.05,0,.13.19.34.3.37.06.02.07.02.09.02.02,0,.04,0,.03,0,0,0,0,0-.01,0,0,0-.1,0-.1,0-7.17-.54-14.86-.82-21.59,1.81-6.76,2.61-13.34,7.29-16.63,13.94h0Z"/>
    <path d="M953.82,152.07c1.94-1.91,4.41-2.98,6.83-3.93,7.12-2.88,15.24-3.71,21.75-7.87.43-.32.95.36.5.68-4.36,3.08-9.6,4.11-14.58,5.65-4.8,1.49-10.16,2.6-14.01,5.93-.29.33-.82-.15-.49-.47h0Z"/>
    <path d="M994.81,46.63c6.41-3.74,15.73-1.8,21.55,2.34,3.08,2.35,5.19,5.42,7.45,8.27,1.58,2,4.26,5.55,5.99,7.37,0,0,.22.22.22.22l.06.06s.11.12.11.12c.39.4.29,1.21-.2,1.51-1.94.95-4.23.67-6.26.72-5.61-.29-11-.89-16.44-2.77-6.45-2.68-13.09-10.61-12.48-17.83h0ZM995.05,46.78c1.46,6.38,7.46,12.41,13.32,14.78,4.96,1.68,10.33,2.61,15.54,3.35,1.64.2,3.68.54,5.19.34-.17.12-.22.51-.09.64.02,0-.06-.08-.05-.08-3.76-5.62-8.08-11.45-13.96-14.84-5.87-3.44-13.12-5.56-19.95-4.18h0Z"/>
    <path d="M995.08,46.47c5.09.22,9.4,3.31,13.34,6.22,3.88,2.8,7.49,6.5,12.08,7.97.52.15.31.96-.23.82-2.51-.66-4.59-2.11-6.59-3.55-3.95-2.89-7.58-6.22-11.85-8.59-2.12-1.15-4.4-2.04-6.79-2.19-.43-.01-.41-.7.03-.68h0Z"/>
    <path d="M981.12,36.4c-3.39-6.01-1.42-14.6,2.58-19.91,4.37-5.04,10.23-7.78,14.99-12.25.69-.74,1.65-.31,1.88.58.75,3.53.22,6.93-.2,10.42-.5,3.38-1.08,6.71-2.4,10.06-2.66,5.95-10.15,11.87-16.86,11.08h0ZM981.28,36.16c5.96-1.33,11.48-6.6,13.83-12,1.66-4.53,2.65-9.46,3.47-14.24.24-1.48.58-3.39.47-4.75.12.18.53.25.67.11.01-.03-.07.05-.07.04-5.29,3.3-10.76,7.2-13.98,12.56-3.29,5.38-5.41,11.91-4.39,18.27h0Z"/>
    <path d="M981.04,35.94c2.75-3.49,5.23-7.27,7.57-11.06,2.28-3.79,4.67-7.68,6.02-11.89.16-.52.96-.3.82.24-2.07,6.52-6.02,12.15-9.79,17.76-1.29,1.85-2.62,3.66-4.1,5.39-.28.33-.81-.11-.51-.44h0Z"/>
    <path d="M947.02,55.65c-7.5.29-14.98-5.93-18.19-12.4-1.64-3.57-2.08-7.33-2.74-10.97-.5-2.7-1.18-7.19-1.95-9.78-.07-.23-.13-.44-.06-.7.06-.38.51-.76.89-.77,2.17.07,4.12,1.43,5.95,2.35,4.89,2.95,9.44,6.05,13.41,10.34,4.51,5.52,6.67,15.7,2.7,21.93h0ZM946.88,55.4c1.75-6.43-.74-14.71-4.88-19.64-3.65-3.88-8.03-7.28-12.35-10.42-1.38-.96-3.05-2.24-4.51-2.78.2-.03.43-.35.38-.52,0,0,0,0,0,0l.02.09c.7,6.83,1.78,14.12,5.43,19.99,3.62,5.89,9.13,11.27,15.92,13.27h0Z"/>
    <path d="M946.56,55.51c-2.07-4.44-4.57-8.73-7.14-12.91-2.6-4.12-5.26-8.38-8.74-11.79-.4-.36.18-1,.58-.62,5.38,5.24,8.98,11.91,12.64,18.37,1.18,2.18,2.32,4.38,3.29,6.68.17.4-.46.68-.63.26h0Z"/>
    <path d="M979.86,66.74c7.58,1.42,13.67,9.34,15.46,16.54.85,3.95.46,7.82.32,11.63-.1,2.82-.43,7.49-.24,10.26.14,1.07-.82,1.54-1.72,1.13-3.59-1.88-6.17-4.8-8.91-7.66-2.59-2.86-5.09-5.77-7.07-9.29-3.29-6.38-3.15-17.42,2.17-22.62h0ZM979.94,67.02c-3.21,5.75-2.57,15.26.45,20.85,2.8,4.72,6.44,9.12,10.08,13.24,1.16,1.25,2.48,2.85,3.83,3.75.05.03.13.06.09.06,0,0-.02,0-.05,0-.13,0-.35.18-.39.29-.02.06-.02.07-.03.09,0,.02,0,.04,0,.03,0,0,0,0,0,0v-.1c.82-7.03,1.38-14.59-.95-21.31-2.31-6.74-6.65-13.39-13.05-16.9h0Z"/>
    <path d="M980.27,66.99c1.09,4.93,2.63,9.8,4.27,14.58,1.69,4.72,3.4,9.6,6.13,13.8.31.44-.39.94-.7.48-4.23-6.47-6.35-13.98-8.57-21.29-.7-2.46-1.35-4.92-1.81-7.45-.08-.43.6-.56.67-.12h0Z"/>
    <path d="M936.24,185.92c2.47-5.92,14.62-8.32,20.51-8.2,4.01-.05,7.46,2.33,10.58,4.55,3.11,2.12,5.66,5.18,7.61,8.3,0,0,.46.67.46.67,0,0-.74.5-.74.5-4.7,3.03-9.93,3.85-15.26,4.5-5.37.75-10.83-.51-15.66-2.9-3.11-1.58-6.72-3.72-7.5-7.42h0ZM936.53,185.94c1.73,2.85,5.11,4.08,8.13,5.16,2.72.85,5.56,1.7,8.39,2.07,3.65.39,7.4.12,11.13-.39,3.2-.52,6.65-1.09,9.54-2.49,0,0-.28,1.17-.28,1.17-1.35-3.49-3.32-6.53-6.72-8.23-2.31-1.19-5.1-2-7.54-2.66-2.54-.44-5.22-.27-7.83.02-3.56.42-7.15,1.13-10.49,2.44-1.59.63-3.32,1.51-4.32,2.9h0Z"/>
    <path d="M936.54,185.58c9.44-.63,19.11-.73,28.33,1.74.52.15.32.95-.22.82-9.17-2.27-18.68-2.26-28.07-1.88-.43.02-.47-.66-.03-.68h0Z"/>
    <path d="M907.96,240.3c8.68-.45,17.56,6.54,21.56,13.9,2.06,4.07,2.8,8.42,3.73,12.64.68,3.14,1.66,8.36,2.62,11.38.42,1.07-.42,1.79-1.47,1.6-4.44-1.08-8.09-3.59-11.9-5.95-3.65-2.42-7.21-4.92-10.37-8.22-5.39-5.99-8.4-18.17-4.17-25.35h0ZM908.1,240.55c-2.07,7.16,1.35,17.72,6.27,22.99,2.89,2.95,6.33,5.59,9.68,8.08,3.38,2.31,6.84,5.1,10.6,6.64.1.03.23.02.11.05-.12.03-.28.25-.28.36,0,.06,0,.06,0,.08,0,.02.01.03,0,.02,0,0,0-.02,0-.02l-.02-.11c-1.17-7.97-2.62-16.44-7.04-23.24-4.45-6.82-11.2-12.93-19.32-14.84h0Z"/>
    <path d="M908.43,240.46c2.59,5.13,5.67,10.05,8.83,14.85,3.2,4.73,6.47,9.62,10.68,13.47.41.35-.14,1.01-.56.64-6.47-5.93-10.94-13.58-15.47-21-1.46-2.5-2.88-5.03-4.11-7.68-.19-.39.44-.69.62-.28h0Z"/>
    <path d="M873.54,181.92c-9.67-1.49-18.05-11.27-20.91-20.26-2.39-9.04-1.05-18.63-1.87-27.76,0,0-.05-.43-.05-.43v-.11c-.18-1.16.87-1.65,1.85-1.25,4.68,2.19,8.2,5.82,11.9,9.28,3.53,3.5,6.95,7.08,9.76,11.42,4.69,7.76,5.45,22.02-.69,29.11h0ZM873.44,181.65c4-7.45,2.57-20.16-1.82-27.19-2.6-3.95-5.88-7.64-9.1-11.16-3.3-3.32-6.57-7.19-10.5-9.7,0,0-.2-.08-.2-.08-.01,0,0,0,.03,0,.12-.03.29-.17.31-.27.01-.05.02-.05.02-.07,0-.02,0-.02,0,0v.04s0,.12,0,.12c-.34,9.18-.64,18.94,2.75,27.56,3.47,8.64,9.76,16.99,18.52,20.76h0Z"/>
    <path d="M873.1,181.65c-1.77-6.3-4.13-12.48-6.62-18.54-2.55-5.98-5.13-12.15-9.01-17.38-.35-.42.3-.99.66-.54,5.93,8.03,9.25,17.56,12.71,26.82,1.09,3.12,2.13,6.24,2.93,9.47.1.42-.55.61-.66.16h0Z"/>
    <path d="M895.98,74.74c-9.36,2.98-21.15-2.01-27.75-8.8-3.49-3.8-5.68-8.31-8-12.65-1.6-3.07-4.29-8.45-6.07-11.35,0,0-.24-.36-.24-.36l-.06-.09c-.67-.95.06-1.87,1.11-1.95,5.16-.13,9.93,1.55,14.79,2.99,6.96,2.35,14.91,4.97,19.62,11.08,4.5,5.64,8.42,13.84,6.59,21.14h0ZM895.77,74.54c.26-8.44-6.71-19.21-13.77-23.52-4.09-2.37-8.67-4.21-13.13-5.92-4.43-1.5-9.09-3.5-13.72-4,0,0-.21.02-.21.02-.01,0,0,0,.02-.02.09-.08.19-.28.16-.38-.01-.05-.01-.05-.01-.07,0-.01-.01-.02,0,0v.03s.07.11.07.11c3.79,8.36,7.89,17.23,14.76,23.43,6.96,6.18,16.32,10.85,25.84,10.31h0Z"/>
    <path d="M895.47,74.69c-4.39-4.85-9.27-9.32-14.2-13.63-4.96-4.22-10.02-8.59-15.84-11.53-.48-.23-.15-1,.36-.77,8.89,4.54,16.12,11.58,23.35,18.33,2.37,2.3,4.69,4.64,6.85,7.17.28.33-.24.79-.52.44h0Z"/>
    <path d="M900.24,101.84c-1.95,7.3-10.16,12.65-17.34,13.83-3.93.52-7.67-.17-11.37-.6-2.75-.32-7.27-1-10-1.03-.24,0-.46,0-.69-.15-.35-.17-.58-.71-.48-1.08.7-2.05,2.61-3.55,4.03-5.03,4.29-3.83,8.63-7.29,13.93-9.85,6.65-2.71,17.09-1.77,21.92,3.9h0ZM899.96,101.9c-5.67-3.61-14.39-3.66-20.36-1.14-4.82,2.36-9.39,5.57-13.7,8.8-1.34,1.05-3.06,2.27-4.02,3.52.03-.18-.17-.48-.35-.51-.03,0-.04,0-.03,0,0,0,0,0,0,0h.09c6.79,1.36,14.13,2.49,20.86.72,6.75-1.74,13.56-5.45,17.5-11.4h0Z"/>
    <path d="M899.97,102.23c-4.89.68-9.76,1.81-14.55,3.05-4.74,1.28-9.63,2.57-13.94,4.92-.46.27-.9-.46-.43-.73,6.64-3.62,14.13-5.11,21.44-6.72,2.45-.49,4.9-.93,7.41-1.18.43-.05.51.64.07.68h0Z"/>
    <path d="M858.94,254.17c-9.36,2.98-21.15-2-27.76-8.79-3.49-3.8-5.68-8.31-8-12.65-1.6-3.07-4.29-8.45-6.07-11.35,0,0-.24-.36-.24-.36,0,0-.06-.09-.06-.09-.67-.95.06-1.88,1.11-1.95,5.16-.13,9.93,1.54,14.79,2.98,6.96,2.35,14.91,4.97,19.63,11.08,4.5,5.64,8.43,13.84,6.59,21.14h0ZM858.73,253.97c.26-8.44-6.72-19.2-13.78-23.51-4.09-2.37-8.67-4.21-13.13-5.91-4.43-1.5-9.09-3.49-13.73-3.99,0,0-.21.02-.21.02-.01,0,0,0,.02-.02.09-.08.19-.28.16-.38-.01-.05-.01-.05-.01-.07,0-.01-.01-.02,0,0v.03s.07.11.07.11c3.8,8.36,7.89,17.23,14.77,23.43,6.96,6.18,16.32,10.84,25.85,10.3h0Z"/>
    <path d="M858.42,254.12c-4.39-4.85-9.27-9.32-14.2-13.63-4.96-4.22-10.03-8.59-15.84-11.53-.48-.23-.15-1,.36-.77,8.89,4.54,16.12,11.57,23.35,18.32,2.37,2.3,4.69,4.63,6.85,7.17.28.33-.24.79-.52.44h0Z"/>
    <path class="st0" d="M942.7,147.69c-.28,5.19-7.24,5.09-7.65,0-.08-5.8,7.95-5.98,7.65,0h0ZM942.47,147.69c-.22-3.05-5.32-2.86-5.6,0-.21,3.6,5.67,3.71,5.6,0h0Z"/>
    <path d="M939.02,102.35c4.03,1.73,8.32,3.37,12.75,2.7.35-.07.48.48.12.57-4.51,1.14-9.24-.15-13.52-1.54-1.2-.42-.54-2.21.65-1.73h0Z"/>
    <path class="st0" d="M955.95,107.68c-5.91-.52-5.52-8.57.32-8.78,6.46.26,6.27,9.17-.32,8.78h0ZM955.96,107.48c4.03-.05,4.17-6.69.26-7.05-4.61-.31-4.86,6.91-.26,7.05h0Z"/>
    <path d="M913.22,102.83c-4.47-.82-9.09-1.5-13.59-.62-.16.04-.31-.06-.35-.22-.03-.15.06-.3.2-.34,2.26-.69,4.63-.92,6.98-.97,2.35-.05,4.7.1,7.02.32.51.05.88.5.83,1.01-.05.54-.56.92-1.09.82h0Z"/>
    <path d="M977.11,49.98c-1.08-5.01.93-9.97,3.86-13.87.1-.13.28-.15.41-.06.12.09.15.26.07.39-1.24,1.99-2.21,4.16-2.7,6.4-.5,2.24-.52,4.59.15,6.66.36,1.21-1.48,1.72-1.78.48h0Z"/>
    <path d="M950.74,72.74c.6-2.8-.26-5.96-.86-8.75-.79-2.9-1.64-6.04-3.42-8.47-.12-.12-.11-.33.03-.43.12-.1.29-.08.4.03,1.11,1.23,1.8,2.67,2.47,4.1.94,1.67,5.62,15.13,2.02,14.77-.55-.13-.84-.74-.63-1.26h0Z"/>
    <path d="M968.49,55.08c3.03.91,4.87,2.93,6.98,4.98,1.88,2.05,3.74,4.19,4.64,6.88.05.15-.04.32-.19.36-.15.04-.3-.03-.35-.17-.46-1.21-1.28-2.31-2.14-3.33-2.48-2.73-5.66-5.91-9.22-6.9-1.32-.13-1.02-2.11.28-1.82h0Z"/>
  </g>
  <g>
    <path d="M588.18,38.46c-2.08,2.55-3.27,5.64-4.41,8.7s-2,6.26-2.65,9.46c-.16.79-.3,1.58-.42,2.38-.13.89-.33,1.77.03,2.62.33.78,1.44.59,1.82,0,.44-.68.39-1.66.5-2.47.12-.9.28-1.8.46-2.7.39-2,.87-3.99,1.43-5.96s1.18-4.1,1.88-6.12c.65-1.88,1.31-3.73,1.86-5.64.08-.26-.3-.52-.49-.28h0Z"/>
    <path d="M509.17,8.13c10.2,30.04,23.43,53.88,46.76,75.76,21.92,20.6,47.88,36.63,74.53,50.39,32.96,16.88,71.88,28.56,108.3,16.4,21.62-6.9,40.48-20.17,58.3-33.91.2-.16.49-.12.64.08.15.2.12.48-.07.64-17.61,14.23-36.53,27.81-58.27,35.05-52.55,17.62-106.17-10.48-149.89-38.01-31.88-20.54-60.88-48.22-74.52-84.33-2.79-7.09-5.11-14.33-7.2-21.62-.11-.39.11-.8.51-.91.37-.11.77.1.9.46h0Z"/>
    <path d="M568.97,97.31c-.11,4.58-1.39,10.44-2.03,14.93-.74,4.85-1.3,9.71-1.53,14.6-.49,9.8.34,19.63,2.36,29.24.16.68-.91.98-1.08.26-3.75-14.47-4.44-29.66-2.66-44.49.42-4.11,1.47-10.53,1.39-14.52-.02-2.38,3.52-2.45,3.56-.03h0Z"/>
    <path d="M634.47,137.36c1.45,7.9,5.49,14.98,10.53,21.22,4.98,6.44,11.3,12.46,13.74,20.5.12.4-.51.62-.64.2-1.37-3.83-3.78-7.15-6.42-10.24-5.41-6.22-11.6-11.89-15.82-19.15-2.16-3.64-3.81-7.63-4.86-11.79-.24-.95.34-1.92,1.29-2.16,1-.26,2.01.4,2.19,1.42h0Z"/>
    <path d="M633.87,137.3c.76,2.66.54,5.32.39,8-.65,7.64-2.65,15.13-5.84,22.09-.19.42-.86.14-.68-.29,2.74-6.96,4.3-14.42,4.51-21.9.01-2.28.04-5.05-.68-7.11-.54-1.54,1.78-2.35,2.3-.79h0Z"/>
    <path d="M733.98,151.95c4.02-2.34,6.66-6.71,7.84-11.2.09-.37.68-.25.61.13-.4,2.43-1.19,4.81-2.4,7.01-.53,1.16-5,7.45-6.36,5.49-.34-.47-.19-1.14.31-1.42h0Z"/>
    <path d="M539.96,65.77c10.77.63,21.82-.95,32.5-2.56,10.78-1.88,21.61-4.26,31.65-8.68.61-.29,1.15.66.48,1.01-10.02,4.86-20.86,7.66-31.7,9.97-8.17,1.64-16.42,2.93-24.73,3.6-2.81.18-5.55.4-8.54.2-.98-.07-1.72-.91-1.66-1.89.06-1.02.99-1.78,2.01-1.64h0Z"/>
    <path d="M657.5,146.43c13.23-2.27,26.46-7.87,35.62-17.95.46-.53,1.31.16.84.73-4.49,5.34-10.21,9.54-16.36,12.76-6.17,3.22-12.83,5.49-19.67,6.86-.66.13-1.31-.3-1.44-.96-.14-.68.32-1.34,1-1.45h0Z"/>
    <path d="M567.24,156.17c8.09,1.68,14.55,10.29,16.39,18.03.88,4.25.45,8.42.26,12.51-.15,3.05-.54,8.07-.39,11.07.13,1.11-.86,1.59-1.8,1.15-3.82-2.08-6.56-5.27-9.47-8.37-2.75-3.11-5.4-6.28-7.49-10.09-3.47-6.86-3.21-18.75,2.5-24.29h0ZM567.32,156.45c-3.61,6.1-3.06,16.5.15,22.55,1.92,3.4,4.41,6.67,6.86,9.78,2.51,2.94,4.99,6.36,8.03,8.7.06.03.15.07.12.07-.04.01-.08,0-.17.04-.09.03-.24.17-.26.24-.02.06-.02.06-.03.08,0,.02,0,.03,0,.02,0,0,0,0,0-.02,0,0,0-.1,0-.1.92-7.58,1.65-15.71-.75-23.01-2.41-7.32-7.05-14.57-13.97-18.36h0Z"/>
    <path d="M567.65,156.44c1.11,5.33,2.72,10.6,4.44,15.77,1.77,5.11,3.55,10.4,6.46,14.96.3.44-.4.93-.7.47-4.47-7.03-6.68-15.14-9-23.05-.72-2.65-1.4-5.31-1.87-8.05-.07-.43.59-.56.67-.11h0Z"/>
    <path d="M575.69,64.77c7.08-3.02,16.52.16,22,5.15,2.89,2.81,4.72,6.24,6.71,9.47,1.39,2.27,3.73,6.28,5.28,8.39,0,0,.2.26.2.26l.05.06s.1.14.1.14c.35.45.15,1.25-.38,1.49-2.08.73-4.48.15-6.55-.06-5.77-1.01-11.28-2.31-16.67-4.94-6.34-3.57-12.22-12.58-10.73-19.97h0ZM575.92,64.96c.66,6.79,6.16,13.87,11.93,17.04,4.94,2.37,10.39,4,15.7,5.4,1.69.41,3.75,1.01,5.37.98-.16.09-.26.43-.18.58.01.02.02.03.02.02,0,0,0,0,0-.01l-.05-.08c-3.22-6.28-6.94-12.87-12.6-17.14-5.66-4.31-12.94-7.42-20.19-6.79h0Z"/>
    <path d="M576.17,64.75c3.63,3.48,7.61,6.67,11.63,9.72,4.02,2.98,8.14,6.08,12.74,8.05.5.2.21.99-.31.79-7.09-3.03-13.01-8.08-18.92-12.91-1.94-1.65-3.84-3.33-5.63-5.18-.3-.31.19-.8.49-.47h0Z"/>
    <path d="M658.37,179.04c8.13,1.24,15,9.47,17.23,17.06,1.09,4.18.89,8.34.91,12.42,0,3.04-.12,8.05.19,11.02.19,1.1-.77,1.63-1.73,1.24-3.91-1.86-6.79-4.89-9.85-7.83-2.9-2.95-5.7-5.96-7.98-9.64-3.8-6.63-4.17-18.47,1.22-24.28h0ZM658.46,179.31c-3.27,6.27-2.17,16.54,1.33,22.4,2.08,3.28,4.73,6.4,7.32,9.36,2.65,2.79,5.29,6.06,8.43,8.23.06.03.15.06.12.06-.04.01-.08,0-.17.05-.09.04-.23.18-.25.26-.02.06-.02.07-.02.08,0,.02,0,.03,0,.02,0,0,0,0,0-.02v-.1c.52-7.58.83-15.7-1.94-22.83-2.77-7.15-7.76-14.11-14.84-17.52h0Z"/>
    <path d="M658.7,179.11c2.02,2.04,3.15,4.64,4.16,7.2,3.07,7.51,3.95,16.09,8.38,22.96.32.43-.36.95-.68.5-3.26-4.6-4.37-10.13-6-15.38-1.59-5.07-2.78-10.73-6.32-14.79-.33-.29.15-.82.47-.49h0Z"/>
    <path d="M758.19,172.5c6.88-2.93,15.43-1.12,21.06,3.65,3.25,2.89,5.91,6.38,8.81,9.52,1.91,2.15,3.9,4.21,5.8,6.38.22.31.41.34.55.88.11.63-.35,1.07-.77,1.29-5.86,2.23-20.97,1.06-26.27-2.35-5.65-3.96-10.73-12.34-9.18-19.38h0ZM758.41,172.69c.46,6.55,5.89,14.2,11.67,17.18,5.03,1.98,10.78,2.63,16.19,3.1,2.23.11,4.59.45,6.71-.07.24-.11,0,.02.06.25.03.1.07.1-.03-.03l-.19-.29c-3.74-5.46-8.79-9.98-14.04-13.92-5.66-4.7-13.07-6.92-20.38-6.23h0Z"/>
    <path d="M758.71,172.54c2.8,3.87,7.06,6.53,11.09,9.02,4.15,2.47,8.47,4.68,12.93,6.53.5.2.22.99-.31.79-4.56-1.78-8.91-4.01-13.1-6.53-4.11-2.63-8.39-5.31-11.19-9.45-.24-.37.35-.75.58-.36h0Z"/>
    <path d="M799.53,131.29c7.07-3.82,17.17-1.46,23.37,3.16,3.29,2.61,5.56,5.98,7.96,9.14,1.79,2.35,4.6,6.32,6.58,8.45.8.75.35,1.74-.63,2-4.13.84-8.14.18-12.23-.31-5.86-.91-12.63-1.97-17.18-6.27-4.38-4.03-8.49-9.97-7.87-16.16h0ZM799.77,131.46c1.15,6.75,8.01,14.09,14.13,16.58,3.53,1.33,7.41,2.21,11.15,2.99,3.68.62,7.64,1.62,11.35,1.48.07-.01.15-.04.13-.02,0,0,0,.01-.04.04-.1.08-.16.36-.11.46.02.06.02.07.03.08.01.02.02.03.02.02,0,0,0,0,0-.02l-.06-.08c-4.02-6.19-8.54-12.67-14.86-16.57-6.33-3.92-14.25-6.41-21.74-4.96h0Z"/>
    <path d="M800.01,131.23c4.13,3.26,8.6,6.17,13.09,8.93,4.49,2.69,9.09,5.5,14.08,7.08.52.15.3.96-.23.82-7.68-2.43-14.36-7.07-20.99-11.5-2.18-1.52-4.34-3.07-6.38-4.81-.33-.28.11-.81.44-.52h0Z"/>
    <path d="M797.06,117.42c-2.06-7.92,2.77-17.43,8.85-22.45,3.39-2.64,7.28-4.08,11.01-5.7,2.77-1.2,7.4-3.05,10-4.49.94-.6,1.8.07,1.81,1.1-.17,4.3-1.81,8.13-3.3,12.08-2.34,5.6-5.04,12.06-10.41,15.55-5.06,3.37-11.96,6.02-17.96,3.92h0ZM797.28,117.22c7,.53,15.98-4.51,19.96-10,2.18-3.19,4-6.84,5.69-10.36,1.51-3.52,3.47-7.21,4.22-10.94,0-.1-.02-.2.03-.09.05.11.31.23.42.22.06,0,.07,0,.09-.01.02,0,.03-.02.02-.01,0,0,0,0-.02,0,0,0-.09.04-.09.04-7.14,2.49-14.68,5.4-20.11,10.73-5.45,5.34-9.86,12.62-10.21,20.43h0Z"/>
    <path d="M797.12,116.93c4.25-3.32,8.23-7.05,12.07-10.84,3.77-3.81,7.68-7.7,10.47-12.28.26-.47,1.01-.05.74.42-4.29,7.05-10.53,12.55-16.54,18.07-2.04,1.8-4.11,3.57-6.34,5.18-.35.26-.76-.3-.4-.55h0Z"/>
    <path d="M744.97,170.01c3.48,6.94.86,16.63-3.81,22.46-2.64,3.09-5.98,5.14-9.11,7.35-2.32,1.64-6.26,4.22-8.36,6.06-.77.76-1.73.29-1.95-.68-.68-4.02.08-7.86.7-11.8,1.07-5.63,2.34-12.14,6.65-16.38,4.07-4.09,9.92-7.83,15.89-7.01h0ZM744.8,170.24c-6.55.92-13.8,7.25-16.42,13.08-2.07,5.12-3.37,10.71-4.45,16.15-.3,1.69-.76,3.72-.66,5.36,0,.06.03.14,0,.11,0,0-.01-.01-.04-.04-.08-.1-.36-.17-.47-.13-.06.02-.07.02-.09.03-.02.01-.03.02-.02.02,0,0,0,0,.01,0l.08-.05c6.12-3.64,12.51-7.8,16.47-13.76,3.99-5.97,6.66-13.49,5.56-20.76h0Z"/>
    <path d="M745.02,170.48c-3.28,3.87-6.24,8.08-9.06,12.31-2.75,4.23-5.61,8.58-7.31,13.33-.17.51-.97.27-.81-.26,2.6-7.33,7.31-13.6,11.81-19.85,1.54-2.05,3.11-4.08,4.86-5.99.29-.32.81.14.5.46h0Z"/>
    <path d="M628.04,167.2c6.2,2.58,8.76,15.46,8.65,21.63.06,4.22-2.42,7.87-4.73,11.17-2.22,3.3-5.44,5.98-8.75,8.04,0,0-.66.45-.66.45l-.51-.73c-3.15-4.82-4.07-10.5-4.76-16.08-.79-5.67.52-11.41,3.01-16.52,1.64-3.28,3.86-7.1,7.75-7.96h0ZM628.03,167.49c-3.04,1.81-4.35,5.39-5.49,8.58-.81,2.46-1.51,5.12-2.02,7.65-.66,4.27-.31,8.66.29,13.01.57,3.39,1.19,7.04,2.7,10.08,0,0-1.17-.27-1.17-.27,3.68-1.45,6.88-3.56,8.67-7.15,1.27-2.44,2.14-5.39,2.83-7.97.46-2.69.28-5.54-.05-8.3-.46-3.76-1.23-7.56-2.64-11.09-.68-1.68-1.62-3.51-3.11-4.55h0Z"/>
    <path d="M628.39,167.5c.68,9.97.81,20.18-1.76,29.92-.15.52-.95.33-.82-.22,2.38-9.7,2.34-19.75,1.91-29.67-.02-.43.66-.48.68-.03h0Z"/>
    <path d="M562.92,125.14c.54,7.63-5.53,15.45-12,18.96-3.58,1.8-7.39,2.39-11.07,3.2-2.59.56-7.11,1.45-9.59,2.22,0,0-.31.11-.31.11,0,0-.08.03-.08.03l-.16.05c-.55.17-1.22-.26-1.28-.85,0-2.19,1.32-4.25,2.19-6.13,2.83-5.08,5.84-9.83,10.06-14.03,5.42-4.78,15.79-7.36,22.24-3.55h0ZM562.68,125.29c-6.62-1.58-14.98,1.25-19.87,5.65-3.83,3.86-7.13,8.45-10.18,12.97-.93,1.45-2.17,3.19-2.67,4.71-.03-.18-.32-.39-.49-.36-.02,0-.04.01-.03,0,0,0,0,0,.01,0,0,0,.09-.02.09-.02,6.94-.97,14.33-2.32,20.19-6.24,5.89-3.9,11.17-9.71,12.95-16.72h0Z"/>
    <path d="M562.79,125.6c-4.45,2.27-8.74,4.97-12.91,7.74-4.11,2.8-8.36,5.66-11.7,9.33-.35.41-1-.14-.64-.55,5.15-5.67,11.82-9.57,18.28-13.54,2.18-1.28,4.38-2.52,6.69-3.59.39-.19.69.44.28.62h0Z"/>
    <path d="M522.78,70.9c6.15,6.75,6.43,18.7,3.16,26.87-1.91,4.41-4.93,7.96-7.73,11.56-1.99,2.52-5.53,6.84-7.29,9.45,0,0-.22.34-.22.34l-.05.08c-.58.96-1.68.69-2.17-.2-2.09-4.33-2.5-9-3.13-13.67-.67-6.79-1.46-14.55,1.94-20.87,3.13-6,8.54-12.37,15.49-13.57h0ZM522.69,71.17c-7.22,3.07-13.58,12.96-14.57,20.59-.45,4.35-.28,8.93-.04,13.34.41,4.31.47,9.01,1.78,13.12.04.08.1.17.09.16,0,0,0,0-.03-.02-.09-.07-.36-.05-.44,0-.05.03-.05.03-.06.05-.01.02-.01.02,0,.01l.02-.02.07-.09c5.67-6.35,11.6-13.22,14.2-21.39,2.57-8.23,2.98-17.87-1-25.75h0Z"/>
    <path d="M522.95,71.37c-2.43,5.56-4.36,11.39-6.14,17.19-1.69,5.79-3.47,11.74-3.76,17.77-.01.54-.86.54-.85-.02.47-9.26,3.68-18.05,6.66-26.73,1.05-2.88,2.15-5.73,3.48-8.52.18-.39.81-.11.61.3h0Z"/>
    <path d="M604.22,55.09c.84-10.29,10.41-19.86,19.63-23.63,9.3-3.29,19.52-2.7,29.06-4.28,0,0,.45-.09.45-.09l.11-.02c1.18-.26,1.75.76,1.42,1.81-1.93,5.09-5.47,9.09-8.8,13.26-3.4,4-6.89,7.9-11.22,11.2-7.76,5.57-22.68,7.57-30.66,1.74h0ZM604.48,54.97c8.15,3.66,21.52,1.11,28.55-4.1,3.95-3.07,7.57-6.83,11.01-10.53,3.23-3.76,7.03-7.54,9.34-11.9.03-.1.06-.22.06-.23.02.09.18.28.29.3.05,0,.05,0,.06,0,.01,0,.02,0,0,0h-.04s-.13.01-.13.01c-9.7.43-20,.9-28.82,5.15-8.83,4.36-17.13,11.71-20.32,21.29h0Z"/>
    <path d="M604.47,54.63c6.49-2.38,12.8-5.38,18.98-8.5,6.09-3.18,12.38-6.41,17.56-10.93.39-.38,1.01.22.59.61-7.97,6.9-17.72,11.19-27.19,15.59-3.19,1.41-6.4,2.76-9.73,3.87-.41.14-.64-.51-.21-.65h0Z"/>
    <path d="M693.12,129.16c-3.22-8.61.96-19.88,7.06-26.31,3.43-3.41,7.57-5.61,11.53-7.93,2.8-1.62,7.72-4.33,10.34-6.12,0,0,.33-.24.33-.24,0,0,.08-.06.08-.06.9-.68,1.83-.02,1.95.99.34,4.83-1.02,9.35-2.17,13.95-1.26,4.48-2.64,8.9-4.92,13.16-4.26,7.37-15.6,14.43-24.2,12.55h0ZM693.31,128.94c7.9-.17,17.54-7.06,21.31-13.82,2.04-3.9,3.59-8.25,5.01-12.46,1.23-4.18,2.92-8.61,3.22-12.93,0-.09-.03-.19-.02-.18,0-.01,0,0,.03.03.06.1.32.18.41.15.06-.01.06-.01.07-.02.02,0,.02-.02,0,0,0,0-.03,0-.03,0l-.1.06c-7.67,3.83-15.78,8.03-21.25,14.71-5.47,6.74-9.45,15.61-8.65,24.46h0Z"/>
    <path d="M693.14,128.65c4.35-4.29,8.33-9.02,12.15-13.79,3.74-4.79,7.62-9.69,10.14-15.22.21-.49,1-.19.78.33-3.88,8.48-10.17,15.51-16.19,22.51-2.05,2.3-4.14,4.56-6.43,6.67-.31.3-.8-.2-.46-.5h0Z"/>
    <path d="M778.33,119.41c-7.66-2.07-13.33-10.75-14.59-18.28-.56-4.13.12-8.09.57-12,.33-2.9,1.04-7.69,1.07-10.56-.06-1.09.94-1.5,1.83-1.01,3.54,2.23,5.96,5.45,8.56,8.61,3.58,4.67,7.7,10.08,8.01,16.28.37,5.89-.76,12.97-5.45,16.97h0ZM778.26,119.13c3.8-5.64,3.91-15.56,1.23-21.56-1.62-3.37-3.8-6.66-5.93-9.78-2.21-2.97-4.36-6.4-7.11-8.84-.06-.04-.13-.08-.1-.07,0,0,.02,0,.05,0,.13.01.36-.15.4-.26.02-.06.03-.06.03-.08,0-.02,0-.04,0-.03,0,0,0,0,0,.01,0,0-.01.1-.01.1-1.37,7.19-2.57,14.93-.71,22.05,1.85,7.15,5.81,14.36,12.16,18.46h0Z"/>
    <path d="M777.93,119.13c-.73-5.17-1.94-10.31-3.25-15.37-1.37-5-2.75-10.17-5.24-14.72-.27-.46.46-.91.73-.43,3.84,7.01,5.44,14.91,7.16,22.63.52,2.59,1,5.17,1.28,7.82.05.43-.64.51-.68.07h0Z"/>
    <path d="M588.53,38.96c-4.69-6-4.05-15.73-.68-22.24,1.94-3.46,4.75-6.06,7.32-8.77,1.81-1.9,5.04-5.14,6.64-7.15,0,0,.19-.26.19-.26,0,0,.05-.06.05-.06l.11-.13c.35-.45,1.17-.47,1.53-.01,1.23,1.8,1.28,4.23,1.61,6.26.5,5.75.67,11.31-.47,17.11-1.8,6.94-8.89,14.82-16.3,15.26h0ZM588.65,38.7c6.31-2.38,11.6-9.35,13.16-15.67,1-5.29,1.17-10.89,1.17-16.3-.04-1.7.02-3.82-.42-5.35.13.13.49.15.62.02.02-.02.03-.03.02-.02,0,0,0,0-.01,0l-.07.07c-5.16,4.64-10.48,9.86-13.11,16.33-2.66,6.47-3.78,14.17-1.36,20.92h0Z"/>
    <path d="M588.39,38.51c2.39-4.34,4.42-8.93,6.3-13.52,1.82-4.58,3.72-9.28,4.43-14.16.07-.53.9-.45.84.1-1.08,7.52-4.39,14.42-7.49,21.27-1.08,2.26-2.2,4.5-3.5,6.66-.22.37-.82.03-.58-.35h0Z"/>
    <path class="st0" d="M744.45,139.49c-3.97,2.93-8.08-2.2-4.63-5.59,4.18-3.54,9.14,2.2,4.63,5.59h0ZM744.32,139.33c2.16-2.05-1.12-5.76-3.45-4.17-2.85,2.09.8,6.49,3.45,4.17h0Z"/>
    <path d="M698.95,156.02c3.42,3.19,5,7.72,5.91,12.17.27,1.47.43,2.97.35,4.48,0,.16-.15.28-.31.28-.16,0-.28-.14-.28-.29-.19-4.29-1.77-8.56-4.08-12.15-.79-1.17-1.71-2.25-2.77-3.06-.98-.78.21-2.24,1.17-1.43h0Z"/>
    <path d="M749.03,158.93c.32,2.62,2.14,5.07,3.73,7.19,1.74,2.22,3.67,4.3,5.73,6.26.27.25-.11.68-.39.43-2.15-1.89-4.19-3.91-6.06-6.1-1.86-2.3-3.78-4.59-4.3-7.67-.11-.88,1.25-1,1.29-.11h0Z"/>
    <path class="st0" d="M701.76,177.32c.52-6.2,9.01-5.82,9.23.32-.27,6.75-9.59,6.57-9.23-.32h0ZM701.95,177.32c.09,4.33,7.1,4.47,7.49.26.29-4.91-7.35-5.15-7.49-.26h0Z"/>
    <path d="M595.14,116.44c-1.84,6.31-.75,13.23.5,19.59.09.35-.46.51-.56.15-1.38-4.89-2.32-9.96-2.33-15.08.02-1.72.15-3.47.64-5.23.14-.49.65-.78,1.14-.64.52.14.81.71.62,1.21h0Z"/>
    <path class="st0" d="M592.2,140.76c.52-6.2,9.01-5.82,9.23.32-.27,6.75-9.59,6.57-9.23-.32h0ZM592.39,140.76c.09,4.33,7.1,4.47,7.49.26.29-4.91-7.35-5.15-7.49-.26h0Z"/>
    <path d="M777.56,130.87c.7-3.96,1.1-8.12.38-12.11.8-2.11,1.6,5.59,1.55,6.06.11,2.1.08,4.19-.1,6.3-.04.51-.49.89-1,.84-.54-.04-.94-.56-.83-1.1h0Z"/>
    <path d="M783.71,127.13c5.58-.29,11.48.67,16.1,4.01.13.09.16.27.07.41-.09.13-.27.16-.4.07-2.28-1.52-4.86-2.56-7.54-3.09-2.68-.54-5.44-.57-8.19-.4-.65.04-.71-.97-.05-.99h0Z"/>
    <path d="M526.66,49.99c.62,7.73-1.4,15.34-4.18,22.44-.13.34-.67.16-.55-.2,1.16-3.59,2.16-7.24,2.72-10.95.57-3.7.66-7.45.18-11.11-.14-1.23,1.72-1.44,1.84-.19h0Z"/>
    <path d="M749.57,148.75c.66,5.74-.72,11.23-2.28,16.67-.6,1.76-1.19,3.54-2.42,5.08-.1.13-.28.15-.41.05-.14-.11-.14-.3-.03-.43,2.69-4.63,3.17-10.45,3.62-15.71.08-1.81.09-3.69-.3-5.28-.26-1.22,1.57-1.6,1.81-.37h0Z"/>
  </g>
  <g>
    <path d="M501.55,235.38c1.68-3.19,2.08-6.86,2.22-10.42.17-4.13-.27-8.35-1.39-12.33-.3-1.06-.66-2.11-1.08-3.13-.46-1.1-.91-2.4-1.89-3.13-.33-.25-.88-.15-1.17.08-.36.29-.44.67-.38,1.11.13.89.81,1.8,1.18,2.62s.69,1.69.97,2.56c.6,1.87,1.02,3.79,1.3,5.73.55,3.75.67,7.64.3,11.42-.17,1.76-.31,3.53-.58,5.28-.05.3.37.54.53.22h0Z"/>
    <path d="M401.13,268.69c-.95-21.64-.19-43.33-1.64-64.92-1.33-21.48-4.84-42.88-12.09-63.17-5.45-15.05-12.3-29.88-21.74-42.85-9.94-12.75-24.49-20.67-39.52-26.19-10.11-3.88-20.84-6.11-30.82-10.39-.23-.11-.33-.38-.23-.61.1-.22.36-.33.59-.24,4.98,1.99,10.28,3.22,15.49,4.71,20.91,5.53,42.79,13.4,56.91,30.78,9.99,13.04,16.94,28.27,22.66,43.61,15.24,41.35,13.14,86.06,11.87,129.25,0,.41-.34.73-.75.73-.39,0-.71-.32-.73-.7h0Z"/>
    <path d="M397.09,179.3c.18-11.64,24.69-16.96,32.56-47.76.16-.67,1.25-.46,1.08.26-3.12,15.06-11.45,26.85-22.69,37.02-2.81,2.92-7.35,6.33-7.4,10.42.07.98-.67,1.83-1.66,1.89-1.04.08-1.93-.79-1.9-1.83h0Z"/>
    <path d="M400.76,212.65c9.26-6.76,20.7-9.31,31.75-11.33,21.99-3.51,44.87-2.54,66.13,4.28,10.56,3.51,20.65,8.66,29.26,15.76.24.2.27.55.08.78-.19.23-.54.27-.78.08-8.61-6.83-18.62-11.72-29.08-14.98-21-6.32-43.59-6.87-65.1-3.02-10.43,2.1-21.41,4.73-30.02,11.19-1.83,1.47-4.09-1.23-2.24-2.76h0Z"/>
    <path d="M430.24,131.59c-9-1.99-16.21-11.66-18.29-20.31-1.64-8.74.38-17.77.09-26.5-.13-1.18.89-1.67,1.89-1.2,4.25,2.35,7.31,5.96,10.56,9.44,3.08,3.51,6.05,7.08,8.39,11.33,3.88,7.64,3.64,20.98-2.64,27.23h0ZM430.16,131.32c4.17-6.74,3.64-18.63,0-25.49-2.17-3.85-4.98-7.52-7.76-11.02-2.85-3.32-5.66-7.15-9.13-9.77-.08-.04-.18-.08-.17-.08,0,0,0,0,.04,0,.13-.02.32-.15.35-.26.02-.05.02-.06.02-.07,0-.02,0-.03,0-.01v.03s-.01.11-.01.11c-.96,8.55-1.85,17.67.79,25.93,2.69,8.28,7.98,16.48,15.88,20.64h0Z"/>
    <path d="M429.82,131.3c-1.24-6-3.05-11.93-4.98-17.76-1.99-5.76-4-11.71-7.28-16.85-.3-.44.4-.94.7-.48,5.02,7.9,7.5,17.03,10.12,25.92.81,2.99,1.58,5.98,2.11,9.05.07.43-.59.56-.67.11h0Z"/>
    <path d="M510.89,210.45c8.21-.62,15.73-5.54,21.12-11.5,5.37-5.94,8.1-13.98,10.47-21.57,0,0,.04-.1.04-.1,0,0,0-.02,0-.02-.01.02-.01.03-.02.1-.02.12.13.34.23.4.12.04-.02.02-.11.03-3.9.93-7.71,3.12-11.36,4.84-3.65,1.91-7.41,3.96-10.69,6.38-5.61,4.37-10.58,14.13-9.68,21.43h0ZM510.71,210.67c-3.03-7.68,1.78-19.07,7.97-24.1,3.6-2.72,7.46-4.61,11.39-6.41,4.08-1.72,8.03-3.6,12.53-3.96,1.02-.01,1.79.78,1.19,1.81-1.39,2.77-3.16,7.75-4.32,10.69-1.56,3.97-2.95,8.11-5.58,11.76-5.05,6.57-14.78,12-23.19,10.21h0Z"/>
    <path d="M510.63,210.21c3.24-4.75,6.98-9.08,10.8-13.36,3.91-4.21,7.83-8.46,12.73-11.58.2-.12.46-.06.58.14.12.2.05.47-.15.59-4.7,3.1-8.64,7.36-12.49,11.47-3.83,4.19-7.59,8.52-10.91,13.12-.23.37-.82,0-.57-.37h0Z"/>
    <path d="M296,60.88c-7.94,4.15-19.25,1.47-26.2-3.66-3.69-2.91-6.29-6.65-9-10.19-2.01-2.65-5.19-7.11-7.39-9.52-.85-.81-.38-1.83.67-2.1,4.62-.91,9.13-.14,13.71.42,6.58,1.05,14.13,2.23,19.25,7.02,4.89,4.45,9.57,11.16,8.96,18.04h0ZM295.76,60.72c-1.13-7.61-8.95-16.05-15.85-18.85-3.99-1.5-8.36-2.48-12.58-3.35-4.17-.69-8.63-1.8-12.82-1.59-.08.02-.18.05-.17.04,0,0,0,0,.03-.03.09-.07.14-.34.1-.43-.02-.05-.02-.06-.03-.07-.01-.02-.02-.02-.01-.01v.02s.08.09.08.09c4.58,6.94,9.6,14.25,16.69,18.72,7.13,4.46,16.13,7.25,24.56,5.47h0Z"/>
    <path d="M295.59,60.98c-8.2-3.62-15.78-8.43-23.34-13.21-2.51-1.61-4.99-3.24-7.45-4.94-.19-.13-.24-.4-.11-.59.13-.19.39-.24.58-.11,7.24,4.74,15.21,9.89,22.69,14.13,2.59,1.45,5.19,2.88,7.88,4.09.4.16.14.8-.27.62h0Z"/>
    <path d="M329.45,58.47c-4-8.21-.91-19.76,4.53-26.68,3.07-3.69,6.97-6.25,10.68-8.92,2.77-1.98,7.42-5.1,9.96-7.28.84-.83,1.85-.33,2.1.74.79,4.75-.13,9.34-.84,14.01-1.27,6.7-2.69,14.38-7.74,19.48-4.69,4.88-11.67,9.47-18.69,8.66h0ZM329.62,58.23c7.79-.91,16.69-8.62,19.78-15.66,1.66-4.05,2.78-8.49,3.8-12.79.82-4.25,2.08-8.78,1.99-13.09-.02-.08-.05-.19-.04-.18,0-.01,0,0,.03.03.07.09.33.15.42.11.05-.02.06-.02.07-.03.02-.01.02-.02,0,0,0,0-.03.01-.03.01l-.09.07c-7.23,4.5-14.86,9.42-19.65,16.53-4.78,7.17-7.9,16.31-6.29,25h0Z"/>
    <path d="M329.42,57.97c3.9-4.65,7.4-9.7,10.74-14.77,3.25-5.08,6.63-10.29,8.61-16,.16-.51.97-.28.81.26-3.05,8.75-8.62,16.28-13.92,23.78-1.82,2.47-3.67,4.9-5.74,7.2-.29.33-.81-.13-.5-.46h0Z"/>
    <path d="M455.73,134.57c-.48-8.52,6.35-17.26,13.56-21.2,3.99-2.03,8.26-2.75,12.4-3.68,3.08-.68,8.2-1.65,11.15-2.6,1.06-.42,1.78.42,1.6,1.45-1.04,4.36-3.49,7.96-5.8,11.69-2.36,3.58-4.81,7.08-8.03,10.2-5.89,5.31-17.79,8.28-24.87,4.13h0ZM455.97,134.42c7.03,1.99,17.35-1.39,22.5-6.23,2.88-2.84,5.46-6.22,7.9-9.51,2.25-3.31,4.99-6.71,6.49-10.4.03-.1.02-.22.05-.1.03.12.25.28.36.29.06,0,.07,0,.08,0,.02,0,.03-.01.02,0,0,0-.02,0-.02,0l-.1.02c-7.81,1.16-16.12,2.61-22.77,6.97-6.67,4.38-12.64,11-14.52,18.96h0Z"/>
    <path d="M455.88,134.1c5.02-2.55,9.84-5.58,14.54-8.7,4.63-3.15,9.41-6.37,13.18-10.51.35-.41,1.01.14.64.55-5.8,6.36-13.29,10.76-20.55,15.22-2.45,1.44-4.92,2.84-7.52,4.05-.39.19-.69-.44-.28-.62h0Z"/>
    <path d="M450.39,152.6c8.52.39,16.52,8.08,19.7,15.66,1.61,4.18,1.9,8.5,2.39,12.71.36,3.13.8,8.32,1.45,11.36.31,1.1-.6,1.73-1.61,1.44-4.23-1.48-7.56-4.29-11.04-6.96-3.32-2.72-6.56-5.5-9.33-9.03-4.68-6.4-6.43-18.55-1.57-25.17h0ZM450.51,152.86c-2.7,6.79-.39,17.41,3.9,23.02,2.53,3.15,5.63,6.07,8.65,8.83,3.07,2.58,6.17,5.65,9.68,7.52.09.04.22.04.1.06-.12.01-.31.22-.32.33-.01.06-.01.06-.01.08,0,.02,0,.03,0,.02v-.02s0-.11,0-.11c-.36-7.89-.95-16.3-4.61-23.36-3.68-7.08-9.65-13.7-17.38-16.38h0Z"/>
    <path d="M450.84,152.8c2.03,5.25,4.55,10.36,7.17,15.35,2.66,4.92,5.37,10.01,9.11,14.18.37.39-.24.99-.62.58-5.74-6.42-9.35-14.32-13.05-22-1.18-2.59-2.32-5.19-3.26-7.9-.15-.41.51-.65.64-.22h0Z"/>
    <path d="M362.54,135.64c-9.28-3.65-20.1-2.03-29.01,1.88-8.82,3.97-15.71,11.47-22.2,18.54,0,0-.09.09-.09.09,0,0-.02.03-.02.03-.02.01,0,.01,0,0,0,0,0,0,.03-.05.03-.05.04-.23,0-.31-.03-.06-.04-.08-.04-.09-.02-.02-.02-.03-.01-.02,0,0,.12.06.21.1,4.77,1.01,10.04.53,14.93.48,4.98-.25,10.13-.61,14.96-1.65,8.41-2.01,18.82-10.5,21.24-18.99h0ZM362.81,135.51c-.55,7.82-7.1,14.68-13.37,18.82-6.65,4.54-15.36,4.58-23.02,4.69-5.28-.13-10.55,0-15.63-1.76-.95-.4-1.46-1.49-.47-2.24,0,0,.09-.07.09-.07,0,0,.35-.29.35-.29,7.23-6.2,13.34-14.36,21.69-19.29,8.72-4.6,22.04-5.77,30.36.15h0Z"/>
    <path d="M362.65,135.98c-5.92,3.58-12.17,6.46-18.49,9.25-6.37,2.65-12.79,5.37-19.7,6.36-.53.06-.67-.76-.11-.84,6.72-1.05,13.16-3.76,19.44-6.36,6.28-2.7,12.57-5.57,18.49-8.97.36-.24.75.34.36.58h0Z"/>
    <path d="M527.43,221.74c1.8,11.26,9.81,20.91,18.95,27.26,9,6.03,20.13,8.35,30.69,10.4.31.09.94.24.72.19-.07,0-.26.13-.29.2,0,.02,0,.02,0,0-.16-1.33-.96-2.73-1.63-4.08-3.45-6.32-7.42-12.41-11.74-18.17-3.42-4.58-6.95-8.8-12.11-11.46-5.89-3.19-12.6-5.22-19.35-5.18-1.74.06-3.55.36-5.23.84h0ZM527.19,221.58c9.79-5.01,26.07-.21,33.66,7.24,4.2,4.33,7.44,9.25,10.58,14.32,3,5.18,6.28,10.21,7.6,16.16.17,1.19-.58,2.19-1.88,1.63-10.67-3.5-21.96-4.46-32.04-9.89-9.55-5.71-18.61-17.97-17.92-29.46h0Z"/>
    <path d="M527.7,221.48c6.96,3.67,13.48,8.03,19.93,12.51,6.35,4.62,12.8,9.25,17.84,15.37.33.43-.32.98-.67.52-5.01-5.92-11.46-10.57-17.7-15.14-6.35-4.51-12.85-8.95-19.7-12.65-.39-.18-.1-.82.3-.61h0Z"/>
    <path d="M307.25,79.1c3.1,9.79-2.12,22.21-9.21,29.14-7.3,6.49-16.99,9.83-25.16,14.86,0,0-.38.25-.38.25,0,0-.1.06-.1.06-.99.68-1.9-.05-2-1.13-.13-5.41,1.62-10.43,3.12-15.53,1.63-4.96,3.38-9.87,6.13-14.54,5.04-8.03,18.08-15.5,27.6-13.12h0ZM307.06,79.32c-8.88-.31-20.23,7.06-24.75,14.51-2.49,4.31-4.41,9.14-6.18,13.83-1.56,4.67-3.64,9.58-4.14,14.46,0,.1.02.23.03.24,0,.01,0,0-.02-.02-.04-.09-.29-.17-.37-.15-.05.01-.05,0-.06.01-.01,0-.01.01,0,0,0,0,.04-.01.04-.01l.11-.06c8.77-4.04,18.09-8.34,24.61-15.57,6.49-7.34,11.37-17.22,10.73-27.24h0Z"/>
    <path d="M307.2,79.63c-5.09,4.63-9.77,9.77-14.29,14.96-4.42,5.22-9,10.56-12.08,16.68-.23.48-1,.15-.77-.36,4.75-9.35,12.12-16.97,19.19-24.58,2.41-2.49,4.86-4.95,7.51-7.22.33-.28.79.23.44.52h0Z"/>
    <path d="M501.39,235.06c-6.96,4.14-11.44,11.75-13.61,19.36-2.15,7.58-1.07,15.87.16,23.6,0,0,0,.1,0,.1,0,0,0,.02,0,.02,0,.01,0,0,0-.02,0-.02,0-.02-.03-.08-.02-.07-.17-.2-.27-.23-.17-.06-.24,0-.04-.11,3.03-2.52,5.44-6.11,7.9-9.23,2.39-3.27,4.81-6.72,6.64-10.29,3.04-6.31,3.19-17.05-.78-23.12h0ZM501.46,234.78c6.04,5.45,6.76,17.62,3.49,24.76-1.99,3.98-4.58,7.33-7.27,10.62-2.85,3.29-5.52,6.67-9.34,8.96-.9.46-1.94.09-1.86-1.09.03-3.05-.58-8.21-.85-11.32-.36-4.19-.94-8.44-.21-12.82,1.59-8,7.83-17.05,16.04-19.12h0Z"/>
    <path d="M501.73,235.15c-.79,5.61-2.2,11.06-3.7,16.5-1.62,5.42-3.22,10.89-6.19,15.77-.13.2-.39.26-.59.13-.2-.12-.25-.38-.14-.58,2.8-4.79,4.42-10.27,6.03-15.58,1.55-5.37,2.99-10.83,3.91-16.33.05-.43.74-.36.67.09h0Z"/>
    <path d="M356.79,85.81c2.26-5.92,7.09-10.21,12.02-13.86.13-.1.31-.07.41.06.09.12.07.3-.04.4-2.29,1.97-4.52,4.04-6.4,6.35-1.89,2.31-3.38,4.89-4.24,7.67-.39,1.19-2.18.57-1.74-.61h0Z"/>
    <path class="st0" d="M376.69,71.94c-5.1,4.66-11.78-2.09-7.3-7.24,5.29-5.25,12.7,1.93,7.3,7.24h0ZM376.55,71.81c3.34-3.72-2.43-9.34-6.07-6.02-4.03,3.91,2.14,9.98,6.07,6.02h0Z"/>
    <path d="M428.55,139.27c9.9-.71,20-1.82,29.15-5.88.33-.16.6.35.26.52-4.51,2.29-9.39,3.74-14.31,4.85-4.93,1.09-9.94,1.81-14.94,2.34-1.23.11-1.4-1.73-.16-1.84h0Z"/>
    <path d="M488.32,202.82c2.43-4.08,4.31-8.27,4.87-13.02.02-.16.17-.27.33-.25.15.02.26.16.25.31-.12,4.78-1.74,9.53-3.8,13.78-.54,1.15-2.25.3-1.65-.83h0Z"/>
    <path class="st0" d="M499.07,184.24c-.57,6.89-10.06,6.48-10.28-.35.32-7.45,10.63-7.22,10.28.35h0ZM498.88,184.23c-.08-5-8.13-5.2-8.54-.29-.3,5.6,8.35,5.87,8.54.29h0Z"/>
    <path d="M428.55,139.27c9.56-.89,17.41,6.07,22.37,13.52.22.3-.25.65-.47.34-3.94-5.13-8.92-10.1-15.37-11.66-2.08-.5-4.23-.61-6.35-.36-1.23.12-1.41-1.73-.17-1.84h0Z"/>
    <path d="M380.74,126.33c-6.07,3.52-12.38,6.37-18.38,9.94-.31.19-.63-.28-.32-.49,5.74-3.9,11.95-7.18,17.7-11,1.04-.7,2.08.89,1,1.55h0Z"/>
    <path d="M322.77,70.12c-6.15,1.93-12.29,5.26-16.34,10.43-.21.3-.69-.03-.48-.33,1.88-2.84,4.45-5.15,7.22-7.1,2.78-1.94,5.79-3.56,9.03-4.75.48-.18,1.01.07,1.19.55.19.5-.1,1.06-.61,1.21h0Z"/>
    <path d="M321.94,67.72c1.66-3.74,4.5-6.84,7.37-9.69.11-.11.3-.11.41,0,.11.11.11.28.02.39-1.25,1.55-2.48,3.13-3.55,4.78-1.09,1.65-1.91,3.37-2.54,5.23-.17.48-.69.74-1.17.58-.52-.18-.78-.79-.53-1.29h0Z"/>
  </g>
  <g>
    <path d="M58.53,235.99c-1.51-1.87-3.81-3.16-6.15-4.42-.49-.26-9.17-4.8-6.52-4.77,2.24,1.4,4.68,2.41,7.16,3.42,1.46.61,9.19,3.72,7.24,5.86-.48.49-1.3.45-1.73-.09h0Z"/>
    <path d="M253.95,221.45c5.33-1.86,11.01-1.91,16.58-2.14,5.47-.1,10.95.22,16.35,1.07.2.03.34.22.31.42-.03.19-.21.33-.41.31-8.06-.82-16.21-.54-24.21.67-2.53.45-5.28.83-7.6,1.88-1.47.68-2.5-1.52-1.02-2.21h0Z"/>
    <path d="M202.92,180.38c6.77-6.49,6.08-22.05,6.96-31.12.71-11.13,1.68-22.5,5.73-33.02.25-.63,1.29-.34,1.04.39-3.78,10.46-4.5,21.67-4.99,32.72-.47,8.37-.29,16.96-2.66,25.15-.87,2.84-2.23,5.6-4.44,7.69-.49.46-1.26.45-1.73-.04-.48-.5-.44-1.31.09-1.77h0Z"/>
    <path d="M45.93,227.27c-7.28,2.89-16.79-.57-22.25-5.77-2.88-2.92-4.66-6.45-6.61-9.78-1.45-2.48-3.71-6.65-5.38-8.93-.7-.83-.14-1.75.85-1.89,4.1-.34,7.9.77,11.81,1.72,5.56,1.56,12,3.39,15.9,8.09,3.76,4.42,7.03,10.67,5.69,16.58h0ZM45.71,227.08c-.35-6.67-6.1-14.52-11.74-17.65-4.97-2.53-10.49-4.31-15.87-5.86-1.68-.44-3.68-1.08-5.33-1.12-.06,0-.15.02-.12,0,0,0,.01-.01.04-.03.11-.07.2-.34.17-.45-.01-.06-.02-.07-.02-.09-.01-.02-.02-.03-.02-.02,0,0,0,0,0,.01l.05.08c3.14,6.46,6.77,13.26,12.43,17.75,5.66,4.53,13.01,7.86,20.41,7.37h0Z"/>
    <path d="M45.52,227.35c-8.82-5.31-15.21-14.12-24.45-18.72-.22-.09-.33-.35-.24-.57.09-.21.34-.31.55-.22,7.15,3.3,12.4,9.35,18.38,14.27,1.96,1.66,3.95,3.29,6.1,4.65.37.22.03.82-.35.58h0Z"/>
    <path d="M98.71,195.62c-6.51,2.83-14.64,1.13-19.98-3.41-3.07-2.75-5.57-6.07-8.32-9.05-1.81-2.04-3.69-3.98-5.5-6.04-.21-.3-.39-.32-.53-.85-.1-.62.34-1.04.75-1.26,5.59-2.14,19.86-1.07,24.92,2.19,5.36,3.76,10.18,11.75,8.65,18.41h0ZM98.49,195.43c-.51-6.21-5.6-13.34-11.08-16.18-4.75-1.87-10.19-2.49-15.29-2.95-2.1-.12-4.33-.43-6.33.03-.23.09.04-.02-.04-.28-.03-.11-.07-.11.02,0l.18.27c3.51,5.19,8.32,9.45,13.3,13.15,5.36,4.43,12.33,6.53,19.24,5.94h0Z"/>
    <path d="M98.2,195.59c-2.65-3.66-6.69-6.17-10.5-8.52-3.92-2.34-8.02-4.43-12.24-6.18-.5-.2-.21-.98.31-.79,4.32,1.68,8.44,3.8,12.4,6.18,3.9,2.5,7.95,5.03,10.6,8.95.24.37-.35.75-.58.36h0Z"/>
    <path d="M117.75,177.9c-3.35-6.59-.89-15.75,3.56-21.3,2.52-2.92,5.69-4.85,8.66-6.94,2.08-1.46,5.77-3.92,7.67-5.54,0,0,.23-.21.23-.21l.06-.05s.13-.1.13-.1c.42-.37,1.22-.22,1.49.29.84,1.98.42,4.25.36,6.27-.61,5.57-1.51,10.89-3.7,16.19-3.04,6.27-11.31,12.41-18.46,11.39h0ZM117.92,177.66c6.43-1.09,12.77-6.71,15.46-12.41,1.96-4.83,3.19-10.13,4.22-15.26.29-1.62.74-3.63.64-5.15.1.17.51.25.64.13,0-.02-.08.05-.08.05-5.8,3.41-11.85,7.38-15.56,13.04-3.76,5.64-6.29,12.73-5.31,19.6h0Z"/>
    <path d="M117.69,177.43c3.1-3.67,5.9-7.65,8.57-11.66,2.6-4,5.31-8.12,6.91-12.61.17-.51.97-.27.81.26-2.46,6.94-6.92,12.88-11.18,18.8-1.46,1.94-2.95,3.86-4.6,5.67-.29.32-.81-.14-.5-.46h0Z"/>
    <path d="M286.67,220.75c2.07-6.07,14.04-9.27,19.92-9.54,4-.31,7.6,1.83,10.85,3.84,3.24,1.91,5.99,4.79,8.14,7.78,0,0,.51.64.51.64,0,0-.71.55-.71.55-4.49,3.33-9.65,4.5-14.92,5.5-5.31,1.1-10.84.21-15.82-1.86-3.2-1.37-6.95-3.26-7.97-6.9h0ZM286.96,220.74c1.92,2.73,5.37,3.74,8.45,4.61,2.77.66,5.66,1.33,8.51,1.51,3.67.15,7.39-.37,11.08-1.12,3.16-.73,6.56-1.53,9.35-3.12,0,0-.2,1.18-.2,1.18-1.58-3.39-3.75-6.3-7.25-7.76-2.38-1.04-5.22-1.66-7.7-2.15-2.56-.27-5.23.07-7.81.54-3.52.66-7.06,1.6-10.31,3.13-1.55.74-3.21,1.72-4.12,3.18h0Z"/>
    <path d="M286.95,220.38c6.73-.65,13.5-.04,20.18.84,2.22.31,4.44.69,6.64,1.15.23.05.38.27.33.5-.05.23-.27.37-.49.33-8.75-1.51-17.7-2.67-26.58-2.15-.43.05-.52-.63-.08-.67h0Z"/>
    <path d="M58.13,248.59c7.31,1.93,12.68,10.13,13.88,17.3.53,3.92-.15,7.68-.58,11.38-.31,2.75-.98,7.27-1,10,0,.24,0,.46-.15.69-.17.35-.71.58-1.08.48-2.06-.7-3.55-2.6-5.04-4.02-3.84-4.28-7.31-8.61-9.88-13.91-2.73-6.64-1.81-17.09,3.84-21.93h0ZM58.19,248.87c-3.59,5.68-3.63,14.4-1.09,20.37,2.37,4.81,5.6,9.38,8.84,13.68,1.05,1.33,2.28,3.05,3.53,4.01-.18-.03-.48.18-.51.35,0,.03,0,.04,0,.03,0,0,0,0,0,0v-.09c1.34-6.79,2.45-14.14.66-20.86-1.76-6.75-5.48-13.55-11.45-17.47h0Z"/>
    <path d="M58.52,248.86c.69,4.89,1.84,9.76,3.08,14.54,1.29,4.73,2.6,9.63,4.95,13.93.27.46-.46.9-.73.43-3.64-6.63-5.15-14.12-6.78-21.43-.5-2.45-.95-4.9-1.2-7.41-.05-.43.64-.51.68-.07h0Z"/>
    <path d="M107.34,208.46c-.3-2.47-2.02-4.79-3.52-6.79-1.64-2.1-3.47-4.08-5.41-5.93-.27-.25.11-.68.39-.43,2.04,1.78,3.98,3.69,5.75,5.77,1.77,2.18,3.59,4.35,4.08,7.27.11.88-1.25,1-1.29.11h0Z"/>
    <path d="M60.23,237.78c-.44.59-.75,1.71-.96,2.5-.7,2.9-1.08,5.98-.76,8.96-.98,2.02-1.13-5.66-1.03-6.13.18-2.23.17-4.4,1.28-6.46.75-1.1,2.34.13,1.46,1.13h0Z"/>
    <path d="M106.02,218.91c-.35-3.66.64-7.31,1.31-10.88,1.51-6.95,3.42-13.79,5.82-20.48,1.24-3.32,2.55-6.65,4.48-9.69.2-.31.71,0,.49.32-3.46,6.1-5.24,13.07-7.03,19.83-1.46,5.96-2.8,11.99-3.33,18.1-.03.63-.04,1.77.06,2.36.27,1.38-1.54,1.8-1.79.44h0Z"/>
    <path d="M307.81,279.47c-29.68-8.31-59.63-21.68-79.73-45.89-12.1-14.35-19.96-31.79-26.49-49.13-4.38-11.57-8.46-23.19-13.13-34.55-4.47-11.25-11.85-21.18-20.19-30.09-12.47-13.57-27.67-24.63-39.91-38.54-4-4.74-7.7-10.15-8.73-16.41-.04-.25.13-.49.38-.53.25-.04.48.13.52.37,1.2,6,5,11.06,8.96,15.59,12.55,13.63,27.88,24.2,40.69,37.71,4.32,4.47,8.41,9.19,12.06,14.28,10.88,15.12,15.61,33.92,22.61,50.93,17.19,46.97,39.73,69.67,86.1,88.45,5.68,2.33,11.47,4.41,17.29,6.42.39.13.59.55.46.94-.13.37-.52.57-.9.47h0Z"/>
    <path d="M237.37,240.62c-.03-4.87,4.02-8.44,7.37-11.24,3.23-2.68,6.41-5.23,9.31-8.12,5.87-5.73,10.41-12.71,13.54-20.3.25-.64,1.29-.29,1.04.4-2.81,7.92-7.16,15.34-12.89,21.52-2.84,3.12-6.01,5.93-9.04,8.71-1.5,1.39-2.97,2.8-4.08,4.3-1.14,1.5-1.75,3.07-1.68,4.67.04.98-.72,1.81-1.7,1.85-1.01.05-1.87-.78-1.85-1.79h0Z"/>
    <path d="M267.98,201.66c-5.72-7.24-5.18-19.28-1.33-27.3,2.22-4.31,5.51-7.68,8.58-11.12,2.18-2.4,6.04-6.51,8-9.02,0,0,.24-.33.24-.33l.06-.08c.64-.93,1.73-.58,2.16.35,1.81,4.51,1.89,9.24,2.21,13.99.2,6.89.47,14.76-3.39,20.89-3.57,5.83-9.45,11.87-16.54,12.61h0ZM268.1,201.39c7.49-2.59,14.6-12.13,16.12-19.75.76-4.35.9-8.98.96-13.44-.11-4.37.14-9.12-.89-13.34-.03-.08-.09-.18-.08-.17,0-.01,0,0,.03.02.11.06.34.08.43.02.05-.03.05-.03.06-.04.01-.01.01-.02,0-.01l-.02.02-.08.09c-6.15,6.01-12.61,12.52-15.79,20.58-3.16,8.12-4.24,17.81-.75,26.03h0Z"/>
    <path d="M267.84,201.17c2.83-5.44,5.18-11.17,7.37-16.91,2.1-5.72,4.3-11.6,5.01-17.66.05-.53.89-.48.85.08-1.11,9.29-4.95,17.93-8.55,26.48-1.26,2.83-2.56,5.63-4.09,8.35-.21.38-.82.05-.59-.34h0Z"/>
    <path d="M211.38,155.11c8.21-.63,15.72-5.55,21.11-11.52,5.36-5.95,8.08-13.99,10.45-21.58,0,0,.04-.1.04-.1v-.02s0,.02-.02.1c-.02.12.13.34.23.4.12.04-.02.02-.11.03-3.9.93-7.71,3.12-11.35,4.85-3.65,1.91-7.41,3.96-10.68,6.39-5.6,4.38-10.57,14.14-9.66,21.44h0ZM211.19,155.33c-3.04-7.67,1.77-19.08,7.95-24.11,3.6-2.73,7.46-4.62,11.39-6.42,4.07-1.72,8.02-3.6,12.53-3.97,1.02-.02,1.79.78,1.2,1.81-1.39,2.77-3.15,7.75-4.31,10.7-1.56,3.97-2.94,8.11-5.57,11.77-5.04,6.57-14.77,12.01-23.18,10.23h0Z"/>
    <path d="M211.11,154.88c3.24-4.76,6.97-9.08,10.78-13.37,3.91-4.21,7.82-8.47,12.72-11.59.2-.12.46-.06.58.14.12.2.06.47-.15.59-4.7,3.11-8.63,7.37-12.48,11.48-3.82,4.19-7.59,8.53-10.9,13.13-.23.37-.82,0-.57-.37h0Z"/>
    <path d="M119.88,65.14c-8.68-2.09-15.47-11.62-17.28-20.03-1.38-8.49.79-17.19.68-25.63-.11-1.16.92-1.62,1.89-1.14,4.07,2.36,6.96,5.92,10.03,9.36,2.91,3.46,5.7,6.97,7.88,11.14,3.59,7.48,3.06,20.4-3.19,26.3h0ZM119.81,64.86c4.17-6.48,3.85-17.96.51-24.62-2.01-3.76-4.65-7.38-7.25-10.82-2.68-3.27-5.3-7.04-8.59-9.65-.07-.04-.17-.08-.15-.08.03,0,.07-.01.15-.03.13-.04.26-.2.28-.3,0-.02,0-.03,0-.01v.02s-.02.11-.02.11c-1.13,8.24-2.17,17.05.21,25.08,2.42,8.06,7.35,16.09,14.86,20.31h0Z"/>
    <path d="M119.5,64.95c-3.78-8.13-6.31-16.74-8.84-25.31-.83-2.86-1.62-5.73-2.35-8.62-.06-.23.08-.46.31-.52.22-.06.45.08.51.3,2.32,8.33,4.92,17.46,7.74,25.58.99,2.8,2.01,5.59,3.23,8.27.19.38-.42.7-.61.29h0Z"/>
    <path d="M135.16,68.29c-1.76-8.96,4.18-19.33,11.21-24.64,3.92-2.78,8.34-4.26,12.6-5.89,3.18-1.2,8.48-3.03,11.5-4.49,1.02-.59,1.88.15,1.84,1.25-.45,4.79-2.52,9-4.4,13.32-1.97,4.18-4.03,8.29-6.97,12.1-5.4,6.55-17.62,11.59-25.78,8.34h0ZM135.38,68.11c7.77,1.11,18.34-4.06,23.13-10.08,2.64-3.49,4.86-7.5,6.94-11.39,1.88-3.9,4.26-7.96,5.27-12.14,0-.09,0-.19,0-.18,0,0,0,0,.02.03.04.11.28.23.38.22.06,0,.06,0,.08,0,.02,0,.02-.01.01,0h-.03s-.11.04-.11.04c-8.14,2.5-16.77,5.3-23.23,10.96-6.46,5.71-11.81,13.75-12.48,22.56h0Z"/>
    <path d="M135.26,67.8c4.96-3.5,9.63-7.48,14.16-11.53,4.45-4.08,9.05-8.25,12.42-13.27.28-.46,1.02,0,.72.46-5.19,7.68-12.5,13.54-19.54,19.43-2.39,1.92-4.81,3.79-7.39,5.49-.36.24-.75-.33-.37-.57h0Z"/>
    <path d="M124.58,201.75c-.61-6.47,4.45-13.1,9.96-16.05,5.73-2.58,11.8-2.58,17.61-4.57.91-.38,1.59.4,1.44,1.29-.73,3.33-2.5,6.02-4.23,8.86-1.74,2.7-3.54,5.32-5.99,7.67-4.73,4.1-13.36,6.15-18.8,2.8h0ZM124.83,201.6c5.63,1.12,12.3-1.21,16.43-4.9,3.18-3.21,5.96-7.02,8.53-10.76.78-1.15,1.83-2.69,2.27-3.82.04.22.37.47.59.39.03-.02-.07,0-.08,0-5.81.71-12.01,1.93-16.83,5.28-4.89,3.31-9.25,8.02-10.92,13.81h0Z"/>
    <path d="M124.69,201.31c7.18-3.97,14.77-8.43,20.57-14.28.35-.41,1,.14.64.55-4.31,4.76-9.89,8.03-15.31,11.34-1.83,1.07-3.67,2.1-5.61,3-.39.19-.69-.44-.28-.62h0Z"/>
    <path d="M38.97,247.17c.4,8.52-6.51,17.2-13.75,21.08-4.01,1.99-8.28,2.68-12.43,3.56-3.09.65-8.21,1.57-11.17,2.5-1.06.41-1.78-.43-1.58-1.47,1.08-4.35,3.57-7.92,5.91-11.64,2.39-3.56,4.87-7.04,8.12-10.13,5.94-5.26,17.87-8.12,24.91-3.9h0ZM38.72,247.32c-7.01-2.06-17.37,1.24-22.56,6.02-2.9,2.81-5.52,6.17-7.98,9.43-2.28,3.29-5.05,6.67-6.59,10.34-.03.1-.02.22-.05.1-.03-.12-.25-.28-.36-.29-.06,0-.07,0-.08,0-.02,0-.03,0-.02,0h.02s.1-.02.1-.02c7.82-1.09,16.14-2.47,22.83-6.76,6.71-4.32,12.74-10.89,14.69-18.83h0Z"/>
    <path d="M38.81,247.64c-5.04,2.51-9.89,5.49-14.62,8.57-4.65,3.11-9.47,6.28-13.27,10.39-.35.41-1.01-.15-.64-.56,5.85-6.31,13.39-10.64,20.69-15.04,2.46-1.42,4.95-2.79,7.56-3.98.39-.18.69.44.28.62h0Z"/>
    <path d="M152.38,237.08c-9.97-.41-19.66,4.67-26.8,11.29-7.03,6.64-11.09,15.99-14.89,24.8,0,0-.06.11-.06.11,0,0-.01.04-.01.04-.01.02,0,.02,0,0,0,0,0,0,.01-.06.02-.06-.04-.23-.09-.29-.04-.04-.06-.06-.07-.07-.02-.01-.03-.02-.02-.02,0,0,.13.02.23.02,4.84-.61,9.66-2.79,14.26-4.44,4.62-1.87,9.37-3.89,13.59-6.46,7.28-4.66,14.34-16.09,13.84-24.91h0ZM152.59,236.87c2.59,9.41-4.51,22.51-12.38,27.72-4.58,2.84-9.41,4.69-14.3,6.42-5.03,1.61-9.97,3.47-15.35,3.46-1.03-.07-1.86-.93-1.18-1.96,0,0,.06-.1.06-.1l.24-.39c4.81-8.24,7.89-17.93,14.17-25.33,6.73-7.2,18.93-12.67,28.74-9.81h0Z"/>
    <path d="M152.6,237.36c-4.42,5.32-9.39,10.09-14.44,14.79-5.15,4.6-10.32,9.27-16.52,12.46-.48.23-.88-.5-.38-.76,6.01-3.2,11.2-7.87,16.28-12.38,5.05-4.61,10.05-9.38,14.53-14.54.26-.34.82.08.53.43h0Z"/>
    <path d="M216.28,116.36c8.94-5.55,14.36-15.76,16.6-25.78,2.12-9.98.04-20.5-1.88-30.42,0,0-.02-.13-.02-.13,0,0-.01-.05-.01-.05,0-.02,0-.02,0,0,0,0,0,0,.02.05.02.05.16.16.23.18.06.01.08.02.09.02.02,0,.03,0,.02,0-.01,0-.13.07-.23.12-3.86,3.41-6.75,8.17-9.77,12.36-2.9,4.38-5.83,8.97-7.96,13.72-3.55,8.4-2.84,22.59,2.91,29.92h0ZM216.22,116.64c-7.8-6.62-9.43-22.25-5.7-31.41,2.28-5.18,5.36-9.67,8.57-14.09,3.4-4.39,6.57-8.95,11.23-12.16.92-.54,2.1-.32,2.13.97,0,0,0,.12,0,.12l.02.48c.77,10.04,3.84,20.23,2.78,30.43-1.54,10.22-8.88,22.27-19.03,25.66h0Z"/>
    <path d="M215.94,116.23c.65-6.44,2.42-12.64,4.23-18.82,1.93-6.14,4.01-12.27,7.2-17.9.27-.47,1.02-.07.73.43-3.05,5.58-5.13,11.69-7.06,17.75-1.85,6.08-3.65,12.3-4.43,18.6-.03.43-.72.41-.68-.05h0Z"/>
    <path d="M111.17,79.71c-3.63,9.61-15.43,16.12-25.28,17.18-9.79.58-19.4-2.8-28.96-3.92,0,0-.46-.04-.46-.04,0,0-.11-.01-.11-.01-1.2-.08-1.47-1.22-.86-2.13,3.25-4.33,7.73-7.18,12.07-10.25,4.35-2.89,8.77-5.65,13.81-7.62,8.96-3.18,23.77-.98,29.79,6.79h0ZM110.88,79.76c-6.8-5.75-20.24-6.99-28.42-3.94-4.62,1.85-9.12,4.44-13.42,7.03-4.12,2.7-8.79,5.26-12.21,8.79-.06.09-.12.2-.12.2,0-.09-.09-.32-.2-.37-.05-.02-.05-.02-.06-.03-.01,0-.02,0,0,0,0,0,.04.01.04.01l.13.02c9.39,2.26,19.36,4.66,28.96,3.02,9.64-1.74,19.59-6.47,25.29-14.74h0Z"/>
    <path d="M110.8,80.09c-6.86.48-13.72,1.61-20.49,2.89-6.71,1.36-13.61,2.71-19.82,5.61-.48.24-.88-.51-.38-.76,9.52-4.4,20.03-5.81,30.29-7.41,3.44-.46,6.88-.87,10.37-1.01.43-.01.48.66.02.68h0Z"/>
    <path d="M148.44,97.52c3.59-5.22,9.31-8.25,14.95-10.63.15-.06.32,0,.38.15.06.14,0,.31-.14.37-2.7,1.37-5.34,2.86-7.72,4.66-2.38,1.79-4.44,3.95-5.93,6.45-.67,1.07-2.25.04-1.55-1.01h0Z"/>
    <path class="st0" d="M171.05,88.74c-6.06,3.33-10.95-4.81-5.38-8.76,6.38-3.85,11.89,4.87,5.38,8.76h0ZM170.95,88.58c4.13-2.83-.16-9.64-4.47-7.28-4.84,2.85-.28,10.21,4.47,7.28h0Z"/>
    <path d="M109.3,203.23c2.8.15,5.21.97,7.97.37,2.61-.46,5.2-1.29,7.76-2.16.34-.12.55.4.21.54-3.78,1.54-7.72,3.42-11.95,3.28-1.43-.08-2.7-.24-4-.18-.51.02-.94-.37-.96-.88-.03-.54.43-1,.97-.96h0Z"/>
    <path d="M166.53,222.32c-4.58,5.32-9.6,10.07-14.11,15.41-.23.28-.68-.06-.46-.36,4.14-5.56,8.94-10.7,13.11-16.19.76-1,2.25.16,1.45,1.14h0Z"/>
    <path d="M128.92,82.27c-6.03-2.29-12.91-3.48-19.28-1.93-.35.1-.52-.45-.17-.56,3.23-1.07,6.69-1.28,10.06-1.1,3.39.2,6.75.79,10.03,1.86.48.16.75.68.59,1.16-.16.51-.74.77-1.23.57h0Z"/>
    <path d="M125.52,75.32c2.57-3.19,6.1-5.46,9.6-7.48.14-.08.32-.03.4.11.08.13.04.3-.08.38-1.61,1.18-3.2,2.39-4.66,3.71-1.47,1.32-2.7,2.77-3.8,4.4-.74,1.06-2.29-.12-1.47-1.12h0Z"/>
    <path d="M268.36,262.76c-27.29-14.23-54.16-30.07-84.15-37.53-9.92-2.4-20.07-3.75-30.3-4.58-11.46-.81-23.04-1.88-34.51-.9-21.8,1.66-42.54,9.54-62.21,18.75-6.78,3.16-14.08,6.88-20.76,10.32-.22.12-.5.03-.62-.19-.11-.22-.03-.49.18-.61,8.98-5.11,18.11-9.95,27.48-14.35,17.54-8.28,36.22-15.04,55.68-16.84,6.48-.69,13.06-.71,19.54-.46,15.54.75,31.15,1.67,46.37,5.41,20.27,4.92,39.24,13.88,57.4,23.88,9.07,4.99,17.93,10.31,26.66,15.84.34.22.45.67.23,1.02-.21.33-.63.43-.97.26h0Z"/>
    <path d="M192.54,157.61c-4.54-5.41-11.67-7.12-18.53-6.97-.36,0-.38-.57-.01-.58,5.24-.33,10.95.07,15.59,2.92,1.57.93,3,2.08,4.3,3.36.36.36.37.94.01,1.31-.37.38-1,.36-1.35-.03h0Z"/>
    <path class="st0" d="M167.96,154.92c5.56.52,6.39-8.09.8-8.51-4.92-.21-5.75,7.8-.8,8.51h0ZM167.94,155.11c-7.56-.62-6.47-10.87.96-10.24,6.75,1.09,5.95,10.55-.96,10.24h0Z"/>
  </g>
  <g>
    <path class="st0" d="M-41.62-174.51c1.65,1.99,2.9,4.26,3.98,6.6s2,4.76,2.73,7.23c1.44,4.88,2.14,9.99,1.96,15.08s-1.33,10.16-3.25,14.94-4.63,9.54-7.49,13.98c-1.59,2.47-3.28,4.89-5.05,7.25s-3.82,4.71-5.69,7.1c-.2.25.12.6.36.36,1.95-1.94,3.66-4.12,5.33-6.29s3.2-4.28,4.67-6.5c2.98-4.49,5.75-9.19,7.89-14.14s3.47-9.9,3.82-15.16-.27-10.32-1.61-15.27c-.75-2.78-1.74-5.5-2.96-8.1s-2.62-5.1-4.49-7.27c-.13-.15-.33.06-.21.21h0Z"/>
    <path class="st0" d="M-3.72-134.33c-1.69,1.99-3.41,3.96-5.16,5.89-1.62,1.78-3.24,3.82-5.47,4.87-1.14.53-2.38.79-3.61,1.05s-2.42.54-3.65.75c-2,.34-4.01.5-6.02.67s-3.91.45-5.8,1.06l.23.56c2.06-1.47,3.58-3.49,5.39-5.22,1.57-1.5,3.41-2.52,5.47-3.2,4.1-1.36,8.47-1.65,12.6-2.92,2.25-.69,4.49-1.68,6.26-3.26.22-.19-.08-.59-.32-.41-1.79,1.32-3.73,2.3-5.85,2.99s-4.18,1.09-6.3,1.5c-3.89.76-8.1,1.48-11.28,4.03-2.26,1.81-3.91,4.28-6.28,5.97-.26.19-.12.67.23.56,3.66-1.19,7.54-1.03,11.3-1.66,1.26-.21,2.5-.51,3.75-.78,1.18-.26,2.37-.49,3.5-.94,2.25-.89,3.88-2.71,5.46-4.48,1.99-2.23,3.87-4.54,5.69-6.91.06-.08-.08-.19-.14-.11h0Z"/>
    <path class="st0" d="M-31.95-120.65c-1.37.94-3,1.35-4.52,1.97-1.44.59-2.82,1.31-4.15,2.11s-2.61,1.7-3.83,2.67c-1,.79-2.26,1.69-2.96,2.78-.2.31.22.55.47.36.51-.4.94-.93,1.42-1.37.52-.48,1.06-.94,1.61-1.38,1.26-1.01,2.59-1.92,3.97-2.76s2.72-1.56,4.16-2.15,2.81-1.06,3.94-2.11c.07-.06-.02-.18-.1-.13h0Z"/>
    <path class="st0" d="M-48.05-120.79c-.25,2.77-.75,5.45-1.43,8.14-.36,1.42-.82,2.8-1.25,4.2-.19.59-.36,1.19-.58,1.77-.24.63-.57,1.16-.89,1.74-.16.28.21.55.44.34.85-.77,1.16-2.21,1.48-3.26.45-1.51.93-3,1.3-4.52.66-2.77,1.15-5.55,1.11-8.4,0-.12-.17-.11-.18,0h0Z"/>
    <path class="st0" d="M-47.96-120.27c.33-1.9,1.15-3.63,1.91-5.39s1.23-3.57,1.38-5.51c.08-1.02.16-2.06.06-3.08s-.41-1.97-.73-2.93c-.66-1.99-1.24-4.01-1.68-6.06-.51-2.41-.82-4.85-.81-7.31,0-.36-.47-.38-.59-.08-.62,1.55-.74,3.25-1.03,4.89s-.6,3.41-.83,5.13c-.56,4.29-1.32,8.66-.2,12.93.66,2.5,2.19,4.77,2.29,7.41,0,.24.36.24.37,0,.06-2.18-.92-4.03-1.67-6.01-.81-2.15-1.1-4.45-1.06-6.74s.35-4.34.64-6.5c.24-1.81.5-3.61.85-5.41s.45-3.75,1.19-5.47l-.56-.15c-.07,4.16.85,8.23,2.11,12.17.31.98.68,1.94.95,2.93.3,1.11.3,2.22.25,3.36-.09,2.09-.42,4.03-1.22,5.97s-1.78,3.75-1.72,5.85c0,.06.1.08.11.01h0Z"/>
    <path class="st0" d="M-13.71-142.38c-3.57-.86-7.37.04-10.68,1.47-3.03,1.31-5.75,3.29-8.07,5.63-1.33,1.34-2.54,2.81-3.59,4.38-.22.33.3.61.52.3,2.38-3.34,5.22-6.31,8.75-8.44,3.78-2.28,8.57-3.85,13.02-3.18.11.02.16-.14.05-.17h0Z"/>
    <path class="st0" d="M-13.36-142.51c.19-.93.81-1.67,1.73-1.94.87-.26,1.9-.09,2.53.61.56.63.75,1.58.54,2.38-.24.95-1.1,1.6-2.08,1.61-1.25.01-2.41-.89-2.49-2.18-.02-.33-.55-.34-.52,0,.09,1.34,1.09,2.39,2.4,2.6,1.16.19,2.4-.33,2.91-1.43.42-.91.33-2.05-.22-2.89-.6-.92-1.69-1.29-2.75-1.12-1.18.18-2.22,1.09-2.22,2.34,0,.09.14.11.15.02h0Z"/>
    <path class="st0" d="M-19.52-148.39c-.21-1,.14-1.98.97-2.57s1.9-.71,2.74-.14c.73.5,1.21,1.43,1.14,2.31s-.72,1.62-1.56,1.87c-1.12.34-2.35-.08-2.89-1.15-.15-.3-.6-.04-.45.26.59,1.16,1.88,1.69,3.13,1.43,1.02-.21,1.92-.99,2.14-2.03s-.23-2.16-1.03-2.83c-.89-.75-2.09-.79-3.09-.22-1.1.62-1.76,1.91-1.24,3.11.04.09.16.02.14-.06h0Z"/>
    <path class="st0" d="M-46.1-173.42c-.48.8-1.3,1.27-2.23,1.23s-1.85-.55-2.21-1.42c-.34-.82-.17-1.83.36-2.53.58-.78,1.61-1.04,2.51-.7,1.16.44,1.89,1.68,1.53,2.9-.1.32.41.46.5.14.38-1.29-.24-2.62-1.4-3.26-1.01-.56-2.29-.49-3.15.31-.76.71-1.07,1.88-.83,2.88.26,1.08,1.23,1.81,2.31,1.97.56.08,1.13.02,1.64-.23.54-.26.92-.68,1.12-1.24.03-.09-.1-.13-.14-.06h0Z"/>
    <path class="st0" d="M-37.96-178.72c-1.02-.02-1.89-.56-2.3-1.51-.38-.88-.3-1.95.4-2.65.59-.59,1.53-.89,2.35-.72.92.19,1.58.96,1.7,1.88.15,1.2-.54,2.38-1.74,2.68-.33.08-.19.59.14.5,1.25-.32,2.07-1.44,2.1-2.71.02-1.12-.59-2.2-1.65-2.63-.96-.38-2.11-.14-2.91.49-.89.71-1.15,1.87-.82,2.94.37,1.19,1.47,2.1,2.75,1.87.09-.02.06-.15-.02-.15h0Z"/>
    <path class="st0" d="M-11.29-183.59c-1.02-.02-1.89-.56-2.3-1.51-.38-.88-.3-1.95.4-2.65.59-.59,1.53-.89,2.35-.72.92.19,1.58.96,1.7,1.88.15,1.2-.54,2.38-1.74,2.68-.33.08-.19.59.14.5,1.25-.32,2.07-1.44,2.1-2.71.02-1.12-.59-2.2-1.65-2.63-.96-.38-2.11-.14-2.91.49-.89.71-1.15,1.87-.82,2.94.37,1.19,1.47,2.1,2.75,1.87.09-.02.06-.15-.02-.15h0Z"/>
    <path class="st0" d="M-41.64-174.59c-.78.14-1.55-.12-2.01-.77s-.56-1.48-.11-2.14c.39-.57,1.11-.94,1.8-.88s1.25.56,1.45,1.21c.27.87-.06,1.82-.89,2.24-.3.15-.04.61.26.45.94-.48,1.37-1.53,1.15-2.55-.18-.82-.81-1.55-1.65-1.73s-1.74.19-2.28.83c-.6.72-.63,1.69-.17,2.5.25.44.63.79,1.09.99s.96.2,1.43-.02c.09-.04.02-.16-.06-.14h0Z"/>
    <path class="st0" d="M-8.47-176.25c-.56-.47-.86-1.15-.73-1.87s.62-1.39,1.35-1.57c.68-.17,1.46.09,1.94.59s.57,1.3.24,1.92c-.44.82-1.46,1.31-2.35.91-.13-.06-.28-.04-.36.09-.07.11-.04.3.09.36.49.22,1.03.27,1.55.12s.93-.47,1.25-.9c.53-.71.63-1.71.14-2.47-.46-.72-1.37-1.14-2.21-1.07-.91.08-1.61.73-1.88,1.59-.14.44-.16.92-.02,1.36.07.22.18.43.32.61.15.2.35.33.57.44.07.04.17-.06.09-.12h0Z"/>
    <path class="st0" d="M-19.46-148.34c-2.43,1.25-4.61,2.87-6.51,4.84s-3.53,4.13-4.48,6.59c-.06.14.17.23.24.1,1.38-2.3,2.74-4.5,4.6-6.46s3.96-3.56,6.27-4.85c.14-.08.02-.29-.13-.22h0Z"/>
    <path class="st0" d="M-40.7-147.32c1.46,3.74,2.74,7.62,3.08,11.64.29,3.39.07,6.74-.71,10.05-.05.23.29.4.39.17.67-1.5.85-3.23.95-4.85.11-1.78.06-3.59-.11-5.36-.4-4.1-1.79-7.96-3.41-11.72-.05-.11-.24-.03-.19.08h0Z"/>
    <path class="st0" d="M-39.8-145.56c-.99-1.63-1.02-3.49-1.03-5.34s-.19-3.56-.87-5.3-1.5-3.31-2.27-4.95c-.83-1.76-1.65-3.53-2.49-5.28-.15-.31-.67-.09-.56.24.62,1.93.63,3.95.74,5.95.1,1.89.36,3.71,1.03,5.49.62,1.65,1.47,3.19,2.37,4.71.94,1.59,1.85,3.22,2.85,4.78.13.2.51.07.41-.17-.67-1.63-1.69-3.12-2.59-4.63-.94-1.58-1.86-3.2-2.5-4.93-.68-1.85-.9-3.73-.99-5.69s-.14-3.83-.7-5.66l-.56.24c.82,1.76,1.67,3.51,2.51,5.27s1.76,3.49,2.43,5.32.68,3.75.77,5.72c.07,1.53.37,3.12,1.39,4.31.04.05.12-.01.09-.07h0Z"/>
    <path class="st0" d="M-20.27-183.85c-.71,4.42.29,9.02-1.34,13.29-.8,2.11-1.94,4.1-3.08,6.04s-2.35,3.83-3.65,5.66l.54.15c.11-1.01.55-1.9.89-2.84.3-.83.47-1.7.58-2.58.23-1.89.11-3.82.45-5.7.58-3.19,2.41-6.11,3.85-8.97.81-1.61,1.57-3.23,1.97-4.99.05-.23-.27-.31-.35-.1-1.18,3.21-2.94,6.17-4.39,9.27-.64,1.36-1.24,2.76-1.56,4.24-.39,1.75-.31,3.57-.45,5.35-.09,1.13-.26,2.25-.64,3.33-.35.99-.82,1.93-.93,2.99-.03.32.39.35.54.15,1.35-1.89,2.62-3.84,3.77-5.86,1.08-1.89,2.17-3.83,2.91-5.89,1.58-4.39.45-9,1-13.52,0-.06-.1-.08-.11-.01h0Z"/>
    <path class="st0" d="M-27.85-159.43c-1.34,2.17-2.51,4.46-3.43,6.84s-1.76,5.02-1.41,7.52c.01.1.19.1.2,0,.36-2.54.83-4.96,1.7-7.39s1.94-4.65,3.13-6.87c.07-.12-.11-.23-.19-.11h0Z"/>
    <path class="st0" d="M-45.74-173.47c2.11,1.09,4.05,2.47,5.75,4.12s3.06,3.58,4.37,5.56c.09.14.31.02.23-.13-1.05-2.13-2.68-4.01-4.41-5.61s-3.73-3-5.86-4.07c-.09-.04-.16.08-.07.13h0Z"/>
    <path class="st0" d="M-37.84-178.58c.74,2.23,1.29,4.51,1.64,6.84s.38,4.8.56,7.21c0,.13.18.12.2,0,.21-2.33-.1-4.75-.5-7.04s-1.03-4.74-1.82-7.03c-.01-.04-.08-.02-.07.02h0Z"/>
    <path class="st0" d="M-8.24-176.36c-3.23,6.53-8.21,11.96-12.98,17.38-3.12,3.54-6.32,7.02-8.61,11.18-1.7,3.09-3.2,6.48-3.99,9.93-.06.25.33.45.44.19,1.29-2.98,2.29-6.07,3.79-8.96,1.11-2.13,2.41-4.15,3.89-6.04,3.63-4.66,7.76-8.91,11.38-13.58,2.42-3.12,4.59-6.41,6.22-10.01.05-.1-.1-.19-.15-.09h0Z"/>
    <path class="st0" d="M-12.79-160.51c-2.31.76-4.62,1.53-6.83,2.57-1.1.51-2.17,1.09-3.19,1.75-.47.31-.93.63-1.38.97s-1,.68-1.24,1.2c-.04.09.03.21.14.18.48-.16.84-.56,1.23-.86.48-.38.98-.73,1.5-1.06.99-.64,2.03-1.21,3.09-1.72,2.19-1.07,4.47-1.93,6.75-2.79.14-.05.08-.27-.06-.23h0Z"/>
    <path class="st0" d="M-13.7-159.94c1.85-.68,3.49-1.83,5.07-3s3.11-2.45,4.67-3.66c2.92-2.26,6.26-3.93,9.43-5.8,1.68-.99,3.33-2.02,4.84-3.25l-.5-.29c-2.68,6.87-9.53,11.9-16.42,13.98-.96.29-1.93.52-2.92.69s-1.97.21-2.95.37c-.23.04-.15.36.05.38,1.76.18,3.68-.28,5.36-.75,1.86-.51,3.67-1.23,5.39-2.11,3.42-1.76,6.57-4.18,8.99-7.19,1.28-1.59,2.33-3.33,3.08-5.23.12-.31-.3-.46-.5-.29-2.78,2.28-6.04,3.93-9.14,5.73-1.5.88-3,1.78-4.4,2.82-1.51,1.13-2.96,2.35-4.44,3.52-1.81,1.43-3.73,2.68-5.69,3.9-.09.06-.03.22.08.18h0Z"/>
    <path class="st0" d="M-11.54-183.25c-.41,3.23-.79,6.49-1.5,9.67-.34,1.53-.77,3.04-1.31,4.51-.58,1.57-1.37,3-2.07,4.51-.05.12.09.2.17.1.94-1.23,1.56-2.78,2.11-4.22.59-1.57,1.04-3.18,1.41-4.82.71-3.21,1.09-6.48,1.4-9.75.01-.14-.19-.13-.21,0h0Z"/>
  </g>
  <path class="st0" d="M-109.05-70.68c1.65,1.99,2.9,4.26,3.98,6.6s2,4.76,2.73,7.23c1.44,4.88,2.14,9.99,1.96,15.08s-1.33,10.16-3.25,14.94-4.63,9.54-7.49,13.98c-1.59,2.47-3.28,4.89-5.05,7.25s-3.82,4.71-5.69,7.1c-.2.25.12.6.36.36,1.95-1.94,3.66-4.12,5.33-6.29s3.2-4.28,4.67-6.5c2.98-4.49,5.75-9.19,7.89-14.14s3.47-9.9,3.82-15.16-.27-10.32-1.61-15.27c-.75-2.78-1.74-5.5-2.96-8.1s-2.62-5.1-4.49-7.27c-.13-.15-.33.06-.21.21h0Z"/>
  <path class="st0" d="M-67.13-28.52c-1.69,1.99-3.41,3.96-5.16,5.89-1.62,1.78-3.24,3.82-5.47,4.87-1.14.53-2.38.79-3.61,1.05s-2.42.54-3.65.75c-2,.34-4.01.5-6.02.67s-3.91.45-5.8,1.06l.23.56c2.06-1.47,3.58-3.49,5.39-5.22,1.57-1.5,3.41-2.52,5.47-3.2,4.1-1.36,8.47-1.65,12.6-2.92,2.25-.69,4.49-1.68,6.26-3.26.22-.19-.08-.59-.32-.41-1.79,1.32-3.73,2.3-5.85,2.99s-4.18,1.09-6.3,1.5c-3.89.76-8.1,1.48-11.28,4.03-2.26,1.81-3.91,4.28-6.28,5.97-.26.19-.12.67.23.56,3.66-1.19,7.54-1.03,11.3-1.66,1.26-.21,2.5-.51,3.75-.78,1.18-.26,2.37-.49,3.5-.94,2.25-.89,3.88-2.71,5.46-4.48,1.99-2.23,3.87-4.54,5.69-6.91.06-.08-.08-.19-.14-.11h0Z"/>
  <path class="st0" d="M-93.19-22.96c-1.37.94-3,1.35-4.52,1.97-1.44.59-2.82,1.31-4.15,2.11s-2.61,1.7-3.83,2.67c-1,.79-2.26,1.69-2.96,2.78-.2.31.22.55.47.36.51-.4.94-.93,1.42-1.37.52-.48,1.06-.94,1.61-1.38,1.26-1.01,2.59-1.92,3.97-2.76s2.72-1.56,4.16-2.15,2.81-1.06,3.94-2.11c.07-.06-.02-.18-.1-.13h0Z"/>
  <path class="st0" d="M-117.22-18.07c-.25,2.77-.75,5.45-1.43,8.14-.36,1.42-.82,2.8-1.25,4.2-.19.59-.36,1.19-.58,1.77-.24.63-.57,1.16-.89,1.74-.16.28.21.55.44.34.85-.77,1.16-2.21,1.48-3.26.45-1.51.93-3,1.3-4.52.66-2.77,1.15-5.55,1.11-8.4,0-.12-.17-.11-.18,0h0Z"/>
  <path class="st0" d="M-119.03-19.6c.33-1.9,1.15-3.63,1.91-5.39s1.23-3.57,1.38-5.51c.08-1.02.16-2.06.06-3.08s-.41-1.97-.73-2.93c-.66-1.99-1.24-4.01-1.68-6.06-.51-2.41-.82-4.85-.81-7.31,0-.36-.47-.38-.59-.08-.62,1.55-.74,3.25-1.03,4.89s-.6,3.41-.83,5.13c-.56,4.29-1.32,8.66-.2,12.93.66,2.5,2.19,4.77,2.29,7.41,0,.24.36.24.37,0,.06-2.18-.92-4.03-1.67-6.01-.81-2.15-1.1-4.45-1.06-6.74s.35-4.34.64-6.5c.24-1.81.5-3.61.85-5.41s.45-3.75,1.19-5.47l-.56-.15c-.07,4.16.85,8.23,2.11,12.17.31.98.68,1.94.95,2.93.3,1.11.3,2.22.25,3.36-.09,2.09-.42,4.03-1.22,5.97s-1.78,3.75-1.72,5.85c0,.06.1.08.11.01h0Z"/>
  <path class="st0" d="M-76.22-37.76c-3.57-.86-7.37.04-10.68,1.47-3.03,1.31-5.75,3.29-8.07,5.63-1.33,1.34-2.54,2.81-3.59,4.38-.22.33.3.61.52.3,2.38-3.34,5.22-6.31,8.75-8.44,3.78-2.28,8.57-3.85,13.02-3.18.11.02.16-.14.05-.17h0Z"/>
  <path class="st0" d="M-83.7-48.02c-.21-1,.14-1.98.97-2.57s1.9-.71,2.74-.14c.73.5,1.21,1.43,1.14,2.31s-.72,1.62-1.56,1.87c-1.12.34-2.35-.08-2.89-1.15-.15-.3-.6-.04-.45.26.59,1.16,1.88,1.69,3.13,1.43,1.02-.21,1.92-.99,2.14-2.03s-.23-2.16-1.03-2.83c-.89-.75-2.09-.79-3.09-.22-1.1.62-1.76,1.91-1.24,3.11.04.09.16.02.14-.06h0Z"/>
  <path class="st0" d="M-116.53-69.59c-.48.8-1.3,1.27-2.23,1.23s-1.85-.55-2.21-1.42c-.34-.82-.17-1.83.36-2.53.58-.78,1.61-1.04,2.51-.7,1.16.44,1.89,1.68,1.53,2.9-.1.32.41.46.5.14.38-1.29-.24-2.62-1.4-3.26-1.01-.56-2.29-.49-3.15.31-.76.71-1.07,1.88-.83,2.88.26,1.08,1.23,1.81,2.31,1.97.56.08,1.13.02,1.64-.23.54-.26.92-.68,1.12-1.24.03-.09-.1-.13-.14-.06h0Z"/>
  <path class="st0" d="M-104.59-78.69c-1.02-.02-1.89-.56-2.3-1.51-.38-.88-.3-1.95.4-2.65.59-.59,1.53-.89,2.35-.72.92.19,1.58.96,1.7,1.88.15,1.2-.54,2.38-1.74,2.68-.33.08-.19.59.14.5,1.25-.32,2.07-1.44,2.1-2.71.02-1.12-.59-2.2-1.65-2.63-.96-.38-2.11-.14-2.91.49-.89.71-1.15,1.87-.82,2.94.37,1.19,1.47,2.1,2.75,1.87.09-.02.06-.15-.02-.15h0Z"/>
  <path class="st0" d="M-79.21-84.15c-1.02-.02-1.89-.56-2.3-1.51-.38-.88-.3-1.95.4-2.65.59-.59,1.53-.89,2.35-.72.92.19,1.58.96,1.7,1.88.15,1.2-.54,2.38-1.74,2.68-.33.08-.19.59.14.5,1.25-.32,2.07-1.44,2.1-2.71.02-1.12-.59-2.2-1.65-2.63-.96-.38-2.11-.14-2.91.49-.89.71-1.15,1.87-.82,2.94.37,1.19,1.47,2.1,2.75,1.87.09-.02.06-.15-.02-.15h0Z"/>
  <path class="st0" d="M-108.93-73.25c-.78.14-1.55-.12-2.01-.77s-.56-1.48-.11-2.14c.39-.57,1.11-.94,1.8-.88s1.25.56,1.45,1.21c.27.87-.06,1.82-.89,2.24-.3.15-.04.61.26.45.94-.48,1.37-1.53,1.15-2.55-.18-.82-.81-1.55-1.65-1.73s-1.74.19-2.28.83c-.6.72-.63,1.69-.17,2.5.25.44.63.79,1.09.99s.96.2,1.43-.02c.09-.04.02-.16-.06-.14h0Z"/>
  <path class="st0" d="M-71-77.27c-.56-.47-.86-1.15-.73-1.87s.62-1.39,1.35-1.57c.68-.17,1.46.09,1.94.59s.57,1.3.24,1.92c-.44.82-1.46,1.31-2.35.91-.13-.06-.28-.04-.36.09-.07.11-.04.3.09.36.49.22,1.03.27,1.55.12s.93-.47,1.25-.9c.53-.71.63-1.71.14-2.47-.46-.72-1.37-1.14-2.21-1.07-.91.08-1.61.73-1.88,1.59-.14.44-.16.92-.02,1.36.07.22.18.43.32.61.15.2.35.33.57.44.07.04.17-.06.09-.12h0Z"/>
  <path class="st0" d="M-86.89-44.51c-2.43,1.25-4.61,2.87-6.51,4.84s-3.53,4.13-4.48,6.59c-.06.14.17.23.24.1,1.38-2.3,2.74-4.5,4.6-6.46s3.96-3.56,6.27-4.85c.14-.08.02-.29-.13-.22h0Z"/>
  <path class="st0" d="M-110.19-43.33c1.46,3.74,2.74,7.62,3.08,11.64.29,3.39.07,6.74-.71,10.05-.05.23.29.4.39.17.67-1.5.85-3.23.95-4.85.11-1.78.06-3.59-.11-5.36-.4-4.1-1.79-7.96-3.41-11.72-.05-.11-.24-.03-.19.08h0Z"/>
  <path class="st0" d="M-111.45-44.59c-.99-1.63-1.02-3.49-1.03-5.34s-.19-3.56-.87-5.3-1.5-3.31-2.27-4.95c-.83-1.76-1.65-3.53-2.49-5.28-.15-.31-.67-.09-.56.24.62,1.93.63,3.95.74,5.95.1,1.89.36,3.71,1.03,5.49.62,1.65,1.47,3.19,2.37,4.71.94,1.59,1.85,3.22,2.85,4.78.13.2.51.07.41-.17-.67-1.63-1.69-3.12-2.59-4.63-.94-1.58-1.86-3.2-2.5-4.93-.68-1.85-.9-3.73-.99-5.69s-.14-3.83-.7-5.66l-.56.24c.82,1.76,1.67,3.51,2.51,5.27s1.76,3.49,2.43,5.32.68,3.75.77,5.72c.07,1.53.37,3.12,1.39,4.31.04.05.12-.01.09-.07h0Z"/>
  <path class="st0" d="M-86.43-85.41c-.71,4.42.29,9.02-1.34,13.29-.8,2.11-1.94,4.1-3.08,6.04s-2.35,3.83-3.65,5.66l.54.15c.11-1.01.55-1.9.89-2.84.3-.83.47-1.7.58-2.58.23-1.89.11-3.82.45-5.7.58-3.19,2.41-6.11,3.85-8.97.81-1.61,1.57-3.23,1.97-4.99.05-.23-.27-.31-.35-.1-1.18,3.21-2.94,6.17-4.39,9.27-.64,1.36-1.24,2.76-1.56,4.24-.39,1.75-.31,3.57-.45,5.35-.09,1.13-.26,2.25-.64,3.33-.35.99-.82,1.93-.93,2.99-.03.32.39.35.54.15,1.35-1.89,2.62-3.84,3.77-5.86,1.08-1.89,2.17-3.83,2.91-5.89,1.58-4.39.45-9,1-13.52,0-.06-.1-.08-.11-.01h0Z"/>
  <path class="st0" d="M-93.69-57.98c-1.34,2.17-2.51,4.46-3.43,6.84s-1.76,5.02-1.41,7.52c.01.1.19.1.2,0,.36-2.54.83-4.96,1.7-7.39s1.94-4.65,3.13-6.87c.07-.12-.11-.23-.19-.11h0Z"/>
  <path class="st0" d="M-114.44-69.16c2.11,1.09,4.05,2.47,5.75,4.12s3.06,3.58,4.37,5.56c.09.14.31.02.23-.13-1.05-2.13-2.68-4.01-4.41-5.61s-3.73-3-5.86-4.07c-.09-.04-.16.08-.07.13h0Z"/>
  <path class="st0" d="M-103.37-76.5c.74,2.23,1.29,4.51,1.64,6.84s.38,4.8.56,7.21c0,.13.18.12.2,0,.21-2.33-.1-4.75-.5-7.04s-1.03-4.74-1.82-7.03c-.01-.04-.08-.02-.07.02h0Z"/>
  <path class="st0" d="M-73.29-74.27c-3.23,6.53-8.21,11.96-12.98,17.38-3.12,3.54-6.32,7.02-8.61,11.18-1.7,3.09-3.2,6.48-3.99,9.93-.06.25.33.45.44.19,1.29-2.98,2.29-6.07,3.79-8.96,1.11-2.13,2.41-4.15,3.89-6.04,3.63-4.66,7.76-8.91,11.38-13.58,2.42-3.12,4.59-6.41,6.22-10.01.05-.1-.1-.19-.15-.09h0Z"/>
  <path class="st0" d="M-75.15-57.32c-2.31.76-4.62,1.53-6.83,2.57-1.1.51-2.17,1.09-3.19,1.75-.47.31-.93.63-1.38.97s-1,.68-1.24,1.2c-.04.09.03.21.14.18.48-.16.84-.56,1.23-.86.48-.38.98-.73,1.5-1.06.99-.64,2.03-1.21,3.09-1.72,2.19-1.07,4.47-1.93,6.75-2.79.14-.05.08-.27-.06-.23h0Z"/>
  <path class="st0" d="M-71.47-58.8c1.85-.68,3.49-1.83,5.07-3s3.11-2.45,4.67-3.66c2.92-2.26,6.26-3.93,9.43-5.8,1.68-.99,3.33-2.02,4.84-3.25l-.5-.29c-2.68,6.87-9.53,11.9-16.42,13.98-.96.29-1.93.52-2.92.69s-1.97.21-2.95.37c-.23.04-.15.36.05.38,1.76.18,3.68-.28,5.36-.75,1.86-.51,3.67-1.23,5.39-2.11,3.42-1.76,6.57-4.18,8.99-7.19,1.28-1.59,2.33-3.33,3.08-5.23.12-.31-.3-.46-.5-.29-2.78,2.28-6.04,3.93-9.14,5.73-1.5.88-3,1.78-4.4,2.82-1.51,1.13-2.96,2.35-4.44,3.52-1.81,1.43-3.73,2.68-5.69,3.9-.09.06-.03.22.08.18h0Z"/>
  <path class="st0" d="M-79.29-81.48c-.41,3.23-.79,6.49-1.5,9.67-.34,1.53-.77,3.04-1.31,4.51-.58,1.57-1.37,3-2.07,4.51-.05.12.09.2.17.1.94-1.23,1.56-2.78,2.11-4.22.59-1.57,1.04-3.18,1.41-4.82.71-3.21,1.09-6.48,1.4-9.75.01-.14-.19-.13-.21,0h0Z"/>
</svg>