<svg width="193" height="160" viewBox="0 0 193 160" fill="none" xmlns="http://www.w3.org/2000/svg">
<path d="M190.852 58.1271L93.1613 155.8L2.66132 61.8476M104.578 144.385L20.9919 60.7992M181.055 48.3325L102.852 126.522M105.819 126.522L30.5966 51.2992M171.019 38.2992L92.8163 116.489" stroke="white" stroke-width="5"/>
<path d="M2.4739 64.2992L38.7744 27.8445M99.693 90.125L83 106.818" stroke="white" stroke-width="5"/>
<path d="M99.0945 90.7104C115.147 75.009 114.523 48.3386 97.7006 31.1403C80.8784 13.942 54.2282 12.7285 38.1758 28.4299" stroke="white" stroke-width="5"/>
<path d="M22.5604 62.5013L47.9888 37.6289M90.1147 80.6965L73.9365 96.92" stroke="white" stroke-width="5"/>
<path d="M89.4346 81.3617C99.6154 71.4036 98.4384 53.6899 86.8056 41.7971C75.1729 29.9043 57.4896 28.336 47.3088 38.2941" stroke="white" stroke-width="5"/>
<path d="M41.8024 63.1113L54.3786 50.8102M77.1742 74.1155L64.5981 86.4166" stroke="white" stroke-width="5"/>
<path d="M76.6252 74.6525C81.6629 69.7249 80.6438 60.5133 74.349 54.0777C68.0541 47.6422 58.8673 46.4197 53.8295 51.3472" stroke="white" stroke-width="5"/>
</svg>
